<svg width="148" height="23" viewBox="0 0 148 23" fill="none" xmlns="http://www.w3.org/2000/svg">
<path d="M26.407 1.40906H31.6253L36.867 17.5724H32.4109L31.7186 14.8939H26.3382L25.6458 17.5724H21.1664L26.407 1.40906ZM27.4 11.3376H30.6556L29.0167 5.49567L27.4 11.3376Z" fill="black"/>
<path d="M37.2832 6.0271H41.1157V12.4461C41.1157 13.6466 41.6927 14.3623 42.8478 14.3623C44.0029 14.3623 44.7407 13.5312 44.7407 12.1687V6.0271H48.5732V17.5723H44.8561L44.7407 16.4184C44.0484 17.4115 42.9865 17.8963 41.5318 17.8963C38.7379 17.8963 37.2832 16.2797 37.2832 13.1629V6.0271Z" fill="black"/>
<path d="M62.4976 17.5723H58.7805L58.6651 16.395C57.9494 17.3182 56.7943 17.8963 55.3863 17.8963C52.2694 17.8963 49.9604 15.5417 49.9604 11.8002C49.9604 8.05869 52.2927 5.70415 55.3863 5.70415C56.7943 5.70415 57.9494 6.28113 58.6651 7.20542V0.716553H62.4976V17.5723ZM53.8162 11.8002C53.8162 13.3703 54.7394 14.3168 56.2406 14.3168C57.7419 14.3168 58.6651 13.3004 58.6651 11.8002C58.6651 10.3001 57.6953 9.28367 56.2406 9.28367C54.786 9.28367 53.8162 10.2301 53.8162 11.8002Z" fill="black"/>
<path d="M68.7312 2.67947C68.7312 4.01874 67.7382 4.71112 66.5143 4.71112C65.2904 4.71112 64.3439 4.01874 64.3439 2.67947C64.3439 1.3402 65.337 0.624512 66.5143 0.624512C67.6916 0.624512 68.7312 1.31689 68.7312 2.67947ZM64.6213 6.02709H68.4538V17.5723H64.6213V6.02709Z" fill="black"/>
<path d="M82.1927 11.8003C82.1927 15.2866 79.5374 17.8964 76.0045 17.8964C72.4716 17.8964 69.8397 15.2877 69.8397 11.8003C69.8397 8.31286 72.4949 5.70422 76.0045 5.70422C79.5141 5.70422 82.1927 8.33616 82.1927 11.8003ZM73.6955 11.8003C73.6955 13.255 74.6187 14.2014 76.0045 14.2014C77.3904 14.2014 78.3369 13.2317 78.3369 11.8003C78.3369 10.3689 77.4137 9.39915 76.0045 9.39915C74.5953 9.39915 73.6955 10.3456 73.6955 11.8003Z" fill="black"/>
<path d="M87.1116 6.02712L87.227 7.2044C87.9427 6.28122 89.0977 5.70312 90.5058 5.70312C93.738 5.70312 95.9317 8.17417 95.9317 11.7992C95.9317 15.4242 93.7147 17.8953 90.5058 17.8953C89.0977 17.8953 87.9427 17.3183 87.227 16.394V21.9586H83.3945V6.02712H87.1116ZM87.227 11.8003C87.227 13.3016 88.1968 14.3168 89.6514 14.3168C91.1061 14.3168 92.0759 13.3704 92.0759 11.8003C92.0759 10.2302 91.1527 9.28376 89.6514 9.28376C88.1502 9.28376 87.227 10.3001 87.227 11.8003Z" fill="black"/>
<path d="M100.965 0.716553H97.1322V17.5723H100.965V0.716553Z" fill="black"/>
<path d="M114.703 17.5724H110.986L110.871 16.3951C110.155 17.3183 109 17.8964 107.592 17.8964C104.475 17.8964 102.166 15.3099 102.166 11.8003C102.166 8.29067 104.499 5.70422 107.592 5.70422C109 5.70422 110.155 6.28121 110.871 7.20549L110.986 6.02822H114.703V17.5735V17.5724ZM105.999 11.8003C105.999 13.3704 106.945 14.3168 108.447 14.3168C109.948 14.3168 110.918 13.4159 110.918 11.8003C110.918 10.1847 109.901 9.28375 108.447 9.28375C106.992 9.28375 105.999 10.2302 105.999 11.8003Z" fill="black"/>
<path d="M119.507 6.0271L121.562 12.7235L123.409 6.0271H127.797L123.687 16.7646C122.209 20.6437 121.077 22.1905 118.214 22.1905C117.475 22.1905 116.76 22.1438 115.859 21.8676L115.628 18.4267L115.859 18.288C116.69 18.6575 117.151 18.7729 118.006 18.7729C118.629 18.7729 119.322 18.4955 119.622 17.7565L119.853 17.1796L115.12 6.0271H119.507Z" fill="black"/>
<path d="M131.4 13.2084C131.584 14.1548 132.647 14.7318 133.986 14.7318C135.14 14.7318 136.248 14.5698 137.796 13.9241L138.05 14.0628V17.2029C136.919 17.5724 135.833 17.8953 133.894 17.8953C130.222 17.8953 127.428 15.6328 127.428 11.8225C127.428 8.28957 130.015 5.70312 133.57 5.70312C136.941 5.70312 139.25 7.87348 139.25 11.0136C139.25 11.6827 139.158 12.5837 138.949 13.2073H131.398L131.4 13.2084ZM133.615 8.93646C132.368 8.93646 131.56 9.51345 131.353 10.5531H135.67C135.532 9.46795 134.747 8.93646 133.615 8.93646Z" fill="black"/>
<path d="M144.191 8.52153C144.745 6.76728 146.315 5.79639 147.793 5.79639L148 6.05048L147.769 10.045C147.585 10.0217 147.423 10.0217 147.261 10.0217C145.253 10.0217 144.19 11.2922 144.19 13.1385V17.5713H140.357V6.02718H144.074L144.19 8.52042L144.191 8.52153Z" fill="black"/>
<path d="M15.6718 8.76002L0.635793 0.0575292C0.352849 -0.10558 0 0.0974744 0 0.423693V2.45867L12.8113 9.86739L2.39227 15.8936V13.9895L9.47698 9.88958L0 4.40933V19.2911C0 19.6173 0.352849 19.8215 0.635793 19.6573L15.6773 10.9559C16.0823 10.7284 16.352 10.3467 16.352 9.88181C16.352 9.41689 16.0812 8.98748 15.6729 8.75891M2.39227 8.07984L5.52019 9.88847L2.39227 11.6927V8.07873V8.07984Z" fill="black"/>
</svg>
