<svg width="78" height="23" viewBox="0 0 78 23" fill="none" xmlns="http://www.w3.org/2000/svg">
<path d="M77.1092 18.6404L76.8797 0.246129L68.0167 0.932794L68.5993 5.76085L67.1285 3.07008L62.4146 3.17471L61.3189 0L56.1615 3.43867L56.5687 4.61463L53.5819 4.73828L53.5373 3.93628L39.7832 4.43389L39.9187 6.7412L39.2315 4.43805L33.5675 4.72402L32.5479 7.29054L32.5122 4.7044L20.6903 5.15801L20.6725 5.88035L12.3653 5.9719L12.4717 3.90715L0 5.09737L0.799028 22.5951L12.2874 21.8579L12.3201 21.0833L27.2431 20.4709L27.2639 20.4697L27.9785 23L34.1424 21.5333L33.5396 20.2688L37.0234 20.1332L37.0995 18.4139H37.7452L37.9735 20.0881L41.7284 19.9525L41.8366 21.6112L54.2638 20.421L54.2608 19.5001L69.8246 18.9115L69.5511 16.8795L70.6843 18.9115L77.1092 18.6404Z" fill="black"/>
<path d="M5.69606 14.7411L5.52662 9.69607L11.0901 9.7032L11.149 4.61475L0.954208 5.54041L1.67357 21.0947L11.4849 20.6161L11.6906 13.8975L5.69606 14.7411Z" fill="white"/>
<path d="M69.2287 1.75148L69.9487 11.2114L66.2455 4.06057L62.9352 4.17175L63.3959 17.6179L68.0653 17.4592L67.1111 10.5753L70.7168 17.3944L75.1477 17.1518L75.203 1.48157L69.2287 1.75148Z" fill="white"/>
<path d="M53.4136 5.14998L53.6246 18.092L62.9014 17.6705L62.2261 4.80933L53.4136 5.14998ZM57.6525 14.3097L57.3867 8.71648L58.848 8.66713L59.0359 14.2627L57.6525 14.3091V14.3097Z" fill="white"/>
<path d="M12.4353 6.59048L12.1826 19.8737L21.5504 19.4189L20.8649 6.46326L12.4353 6.59108V6.59048ZM16.2907 15.7508L16.0249 10.1576L17.4863 10.1082L17.6741 15.7038L16.2907 15.7502V15.7508Z" fill="white"/>
<path d="M31.3676 12.442L31.0959 5.24841L21.6942 5.53616L22.3666 19.4882L26.1436 19.3616L25.9753 13.9349L28.3718 21.2373L31.9484 20.424L29.2862 13.7993L31.3676 12.442ZM25.9949 10.8065L25.8957 7.85358L26.9135 8.03728L26.9949 10.4617L25.9949 10.8065Z" fill="white"/>
<path d="M61.3004 2.75847L60.6851 0.785278L56.8475 3.46595L57.1793 4.46176L61.3004 2.75847Z" fill="white"/>
<path d="M41.8186 15.8358L41.9994 18.7311L38.3395 18.8256L38.0958 17.0414L36.2046 17.1306L36.0578 18.9332L31.7874 19.1353L34.3188 5.29263L38.2634 5.10596L41.4572 15.7448M37.6297 13.1307L37.031 8.70693L36.5417 8.77471L36.4187 13.1884L37.6297 13.1313V13.1307Z" fill="white"/>
<path d="M47.3839 15.9712L52.9979 14.3303L52.9224 18.6982L42.6783 19.8617L42.4518 16.6495L48.3643 8.16757L41.4477 8.40953L41.2128 5.02437L52.5407 4.61475L52.6763 8.86791L47.3827 15.9712H47.3839Z" fill="white"/>
<path d="M43.186 16.6406C44.9196 16.5823 48.5806 13.4492 47.2644 11.1734C46.9534 10.6366 46.4178 10.2792 45.8964 10.1663C45.2055 10.0177 44.4921 10.2192 43.8489 10.828C43.6479 11.0182 43.318 11.1704 43.0064 11.1811C42.6949 11.1918 42.3762 11.0527 42.1468 10.8851C41.3674 10.3161 40.7146 10.174 40.0642 10.3619C39.5071 10.5218 39.0202 10.9195 38.7646 11.4588C37.6641 13.7702 41.3977 16.7006 43.1866 16.6406H43.186Z" fill="black"/>
<path d="M43.1778 15.9381C44.6005 15.8905 47.6046 13.3199 46.5238 11.4519C46.2687 11.0114 45.8294 10.7183 45.4013 10.6255C44.8341 10.5036 44.2491 10.6689 43.7212 11.1683C43.5565 11.3247 43.2854 11.4495 43.0298 11.4578C42.7742 11.4662 42.5126 11.3526 42.3247 11.2153C41.6856 10.748 41.1493 10.6321 40.6161 10.786C40.1589 10.9174 39.7594 11.2432 39.5495 11.6861C38.647 13.5826 41.71 15.9869 43.1778 15.9375V15.9381Z" fill="#FC3BC9"/>
</svg>
