<svg width="63" height="40" viewBox="0 0 63 40" fill="none" xmlns="http://www.w3.org/2000/svg">
<path d="M26.4713 22.9945C28.8843 22.9945 31.4818 20.5815 31.4818 18.8639C31.4818 17.9865 30.8709 17.4982 29.8331 17.4155C29.696 16.8956 28.9197 16.6492 28.2172 16.6492C25.4776 16.6492 23.1076 18.5797 23.1076 20.4532C23.1076 21.0464 23.3691 21.5252 23.7544 21.9011C23.6938 22.0722 23.6609 22.2137 23.6609 22.3129C23.6609 22.7671 24.0867 23.4341 24.4132 23.4341C24.6413 23.4341 24.9104 23.1998 25.1643 22.7349C25.6602 22.9111 26.1415 22.9945 26.4713 22.9945ZM30.2329 19.1482C30.2329 19.9574 29.0687 21.4898 26.7839 21.4898C26.4965 21.4898 26.1643 21.4639 25.8396 21.4064C26.7745 19.9845 28.5426 18.5803 29.6088 18.5803C30.0346 18.5803 30.2336 18.8077 30.2336 19.1482H30.2329ZM24.3425 20.3547C24.3425 19.7186 25.0576 18.5759 26.6008 18.3838C25.6697 19.0275 24.9211 19.8885 24.412 20.6547C24.3678 20.5638 24.3425 20.464 24.3425 20.3547ZM5.1381 15.401C2.6259 15.401 0 16.1957 0 17.5728C0 18.1406 0.567882 18.382 1.27726 18.382C1.73144 18.382 2.34165 18.2967 2.34165 18.0269C2.34165 17.8425 1.87294 17.7004 1.26273 17.5867C1.14903 17.5582 1.14903 17.473 1.26273 17.4306C2.02896 17.147 3.03713 16.9619 4.56959 16.9619C11.6804 16.9619 21.9851 22.2561 21.9851 27.5792C21.9851 30.4464 18.9618 32.3339 14.3771 32.3339C13.3733 32.3339 12.4233 32.2309 11.5339 32.0585C11.5238 30.3953 11.4972 27.9462 11.4865 26.6147C15.8015 26.6361 17.1167 27.4283 17.1167 27.8483C17.1167 28.3594 15.8963 28.5154 15.8963 28.842C15.8963 28.9557 16.0239 29.0549 16.3505 29.1825C16.6057 29.2677 16.8615 29.3246 17.1451 29.3246C18.1526 29.3246 18.8197 28.5154 18.8197 27.451C18.8197 26.1592 16.7756 24.5838 12.007 24.5838C11.8276 24.5838 11.6488 24.5876 11.4701 24.5939C11.4145 22.0703 11.1694 21.3881 10.7727 20.879C10.503 20.524 10.3754 20.4532 10.2617 20.4532C9.83276 20.4532 9.57946 22.4253 9.43038 24.7847C6.26439 25.2711 3.6328 26.5711 3.6328 27.8629C3.6328 29.0075 5.92265 31.442 9.25414 32.9605C9.33563 34.0445 9.61925 35.1013 10.4038 35.1013C10.7443 35.1013 11.1416 34.9737 11.3267 34.7747C11.4631 34.6276 11.5143 34.3231 11.5314 33.7887C12.6406 34.0938 13.8174 34.2776 15.0309 34.2776C20.3534 34.2776 24.3564 31.6801 24.3564 27.6494C24.3564 21.4608 14.2501 15.3998 5.1381 15.3998V15.401ZM4.30049 28.0618C4.30049 27.5489 6.11658 26.8755 9.335 26.6734C9.26235 28.48 9.23582 30.2721 9.22824 31.4211C6.18101 30.3151 4.30049 28.54 4.30049 28.0612V28.0618ZM43.8021 28.5306C43.8021 31.0996 43.1489 32.2069 42.1275 32.2069C41.2476 32.2069 40.4952 31.128 39.8566 29.8508C38.9198 27.9911 38.7638 27.8212 38.6924 27.8212C38.5787 27.8212 38.5648 28.077 38.4511 30.7452C38.3804 32.2638 38.1675 32.6757 37.5996 32.6757C37.1309 32.6757 36.5921 32.4628 36.5921 30.6315C36.5921 27.9917 37.2452 24.8971 38.2104 24.8971C38.7638 24.8971 39.6583 26.0613 40.7795 27.9772C41.6026 29.3827 41.8016 29.6095 41.9292 29.6095C42.0429 29.6095 42.0568 29.4819 42.0568 29.3536C42.0568 27.6077 40.8648 24.3577 40.8648 23.5485C40.8648 23.2788 40.95 23.0943 41.1629 23.0943C41.7024 23.0943 43.8027 24.9824 43.8027 28.5306H43.8021ZM57.6271 24.8826C56.2892 24.8826 54.3171 26.9545 52.7044 29.6044C52.676 29.4686 52.6589 29.3202 52.6589 29.1553C52.6589 27.4238 54.504 25.7916 54.504 24.429C54.504 24.1309 54.4333 24.0317 54.3196 24.0317C53.8938 24.0317 51.2256 26.7713 51.2256 29.5103C51.2256 30.2708 51.4208 30.8893 51.724 31.3794C50.6691 33.4937 49.9338 35.7513 49.9338 37.5301C49.9338 38.8788 50.9843 40 51.5377 40C51.779 40 51.8927 39.8294 51.9495 39.4037C52.2597 36.8902 52.9236 34.6509 53.7024 32.771C53.8901 32.8108 54.0745 32.8323 54.2488 32.8323C56.8463 32.8323 59.2448 30.6606 59.2448 27.4245C59.2448 26.4454 58.9612 24.8839 57.6271 24.8839V24.8826ZM54.6879 30.6694C56.0706 28.0581 57.5045 26.5433 57.8962 26.5433C58.0806 26.5433 58.1798 26.8269 58.1798 27.1535C58.1798 28.751 56.6429 30.4856 54.6872 30.6694H54.6879ZM27.0676 27.2242C27.1528 28.4446 27.2097 29.9923 27.2097 31.1704C27.2097 32.3484 27.0676 32.5897 26.94 32.7458C26.7978 32.8879 26.5995 32.9447 26.3582 32.9447C25.9893 32.9447 25.6911 32.831 25.4922 32.6182C25.2932 32.3908 25.1801 31.9088 25.1801 29.5949C25.1801 27.2811 25.237 24.4853 26.0316 24.4853C26.2306 24.4853 26.4574 24.6413 26.741 25.1807C26.9254 25.5496 27.0107 26.0752 27.0676 27.2249V27.2242ZM46.1583 33.2852C45.1362 33.2852 44.2139 32.3345 44.2139 31.1704C44.2139 30.6808 44.4237 29.9291 44.7225 29.1174C44.5829 28.782 44.4982 28.3657 44.4982 28.1471C44.4982 27.8344 44.7768 27.6955 45.3358 27.626C45.5247 27.2053 45.718 26.8023 45.9005 26.4422C45.3743 26.3121 45.0168 26.0689 44.7673 25.7909C44.526 25.5351 44.4553 25.3652 44.4553 25.2231C44.4553 24.9957 44.8526 24.8826 45.7041 24.7266C46.9675 24.4853 48.8833 24.3292 50.0191 24.3292C50.5017 24.3292 50.8706 24.6558 51.1119 25.0247C51.2964 25.2944 51.4953 25.6349 51.4953 25.8055C51.4953 26.0329 51.3816 26.1036 50.7999 26.2173C50.2819 26.3165 48.6528 26.458 47.5581 26.5168C47.4399 26.8339 47.3161 27.1718 47.1904 27.5237C47.9838 27.5003 48.8473 27.4914 49.3659 27.5237C49.7633 27.5521 49.877 27.6658 49.877 28.1623C49.877 28.8154 49.721 28.9285 49.2668 28.9569C48.6989 28.9974 47.5897 29.0384 46.651 29.0909C46.5025 29.54 46.3591 29.9878 46.229 30.4187C46.1583 30.66 46.2435 30.7023 46.4564 30.66C47.4501 30.4471 49.2529 30.1489 49.5934 30.1489C49.877 30.1489 50.3312 30.6315 50.3312 31.0434C50.3312 31.7389 47.5631 33.2859 46.1583 33.2859V33.2852ZM36.4777 24.9963C36.4777 25.1239 36.4354 25.2944 36.3217 25.4928C36.208 25.6918 36.0381 25.9047 35.5125 25.947C29.9057 26.3588 29.5798 26.6425 29.5798 26.8553C29.5798 26.9975 29.7503 27.1674 32.4186 27.3095C35.3849 27.4655 36.1796 28.2602 36.1796 29.8501C36.1796 32.4337 33.7381 32.7173 32.1911 32.7173C30.0194 32.7173 28.2735 31.3971 28.2735 30.2051C28.2735 29.3675 29.0258 28.715 30.5728 28.715C31.9069 28.715 33.8657 29.226 33.8657 29.6941C33.8657 30.1344 32.9997 30.4035 32.2758 30.4035C30.8141 30.4035 30.5867 29.6941 29.792 29.6941C29.3947 29.6941 29.1389 30.0914 29.1389 30.2759C29.1389 30.6732 29.7491 30.9429 31.0124 30.9429C33.0281 30.9429 34.8019 30.2898 34.8019 29.5236C34.8019 29.0271 33.8367 28.6291 31.3952 28.516C28.4857 28.3884 27.8894 28.2324 27.8894 27.1819C27.8894 26.8553 28.017 26.2028 28.2444 25.8617C28.7978 25.0386 30.941 24.2863 33.198 24.2863C35.455 24.2863 36.4771 24.6413 36.4771 24.9957L36.4777 24.9963Z" fill="black"/>
<path d="M56.0776 3.60754C52.2446 3.60754 49.9895 5.36614 49.9895 8.34262C49.9895 11.3191 52.2591 13.0777 56.0776 13.0777C59.8961 13.0777 62.1658 11.3191 62.1658 8.34262C62.1658 5.36614 59.8961 3.60754 56.0776 3.60754ZM56.0776 10.5977C54.3942 10.5977 53.3721 9.7557 53.3721 8.34326C53.3721 6.93081 54.3942 6.08878 56.0776 6.08878C57.761 6.08878 58.7831 6.93081 58.7831 8.34326C58.7831 9.7557 57.7762 10.5977 56.0776 10.5977ZM48.8171 1.3379C48.8171 2.26963 48.2309 2.6758 46.9081 2.6758C45.5854 2.6758 44.9992 2.27027 44.9992 1.3379C44.9992 0.40554 45.5854 0 46.9081 0C48.2309 0 48.8171 0.406172 48.8171 1.3379ZM9.91114 7.97246C10.8763 8.08806 11.899 8.13227 12.6811 8.13227C15.6424 8.13227 17.2355 7.18538 17.2355 4.28407C17.2355 1.38275 15.3866 0.22551 10.7115 0.22551H3.09087V12.8522H6.39772V8.68626C10.7001 13.0758 14.7062 13.0777 17.2658 13.0777V9.99637C14.5091 9.99637 12.5029 9.74559 9.89219 8.06405L9.91114 7.97246ZM6.39772 5.96939V3.30686H9.83976C12.8011 3.30686 13.7031 3.6227 13.7031 4.67445C13.7031 5.78684 12.6356 6.20754 9.82459 6.20754C8.64588 6.20754 7.33324 6.11342 6.39709 5.96876L6.39772 5.96939ZM30.0574 3.83305H26.9009V4.7673C26.0077 4.07119 24.7917 3.60754 23.3085 3.60754C20.332 3.60754 18.3782 5.45647 18.3782 8.59782C18.3782 11.9198 20.3175 13.0771 22.7071 13.0771C24.7493 13.0771 26.0854 12.405 26.9129 11.1833H27C27.0057 12.0215 27.182 12.4713 27.3519 12.8516H30.8242C30.2077 12.0095 30.0574 10.4468 30.0574 7.9813V3.83305ZM23.7892 10.7626C22.5113 10.7626 21.7602 10.0261 21.7602 8.6433C21.7602 7.06473 22.7374 6.11784 24.4809 6.11784C25.424 6.11784 26.249 6.27892 26.9893 6.52464C26.8112 9.88961 25.1663 10.7626 23.7892 10.7626ZM45.3302 3.83305H48.4867V12.8522H45.3302V3.83305ZM43.4061 0.22551H40.2496V4.7673C39.3564 4.07119 38.1404 3.60754 36.6572 3.60754C33.6807 3.60754 31.7269 5.45647 31.7269 8.59782C31.7269 11.9198 33.6662 13.0771 36.0558 13.0771C38.098 13.0771 39.4341 12.405 40.2616 11.1833H40.3487C40.3544 12.0215 40.5307 12.4713 40.7006 12.8516H44.1729C43.5564 12.0095 43.4061 10.4468 43.4061 7.9813V0.22551ZM37.1379 10.7626C35.86 10.7626 35.1089 10.0261 35.1089 8.6433C35.1089 7.06473 36.0861 6.11784 37.8296 6.11784C38.7727 6.11784 39.5977 6.27892 40.338 6.52464C40.1599 9.88961 38.515 10.7626 37.1379 10.7626Z" fill="black"/>
<path d="M37.6786 17.7648C39.3469 17.7648 39.4745 16.1281 40.7031 16.1281C41.9317 16.1281 42.1282 18.1596 43.5185 18.1596C44.7585 18.1596 45.1868 15.4055 46.3225 15.4055C47.4583 15.4055 47.6086 18.1596 48.9762 18.1596C50.5984 18.1596 50.5984 14.4915 51.9887 14.4915C53.3791 14.4915 53.4138 18.1596 55.1636 18.1596C56.461 18.1596 56.6929 16.9632 58.4079 16.9632C58.9758 16.9632 59.7287 17.2115 60.4817 17.4597L59.8443 19.706C59.1608 19.4805 58.8014 19.4123 58.4072 19.4123C56.5185 19.4123 56.3214 21.4103 54.8269 21.4103C53.4365 21.4103 53.2742 19.3788 52.0689 19.3788C50.5971 19.3788 50.5971 21.8847 49.1607 21.8847C47.7242 21.8847 47.7009 19.3788 46.2752 19.3788C45.0238 19.3788 44.8728 20.6883 43.5172 20.6883C42.0688 20.6883 41.9412 19.3788 40.7018 19.3788C39.6008 19.3788 39.1953 20.2025 37.6773 20.2025C37.0633 20.2025 36.3565 19.9656 35.6035 19.706L36.2409 17.4597C36.9244 17.6852 37.2838 17.7642 37.678 17.7642L37.6786 17.7648Z" fill="#F70012"/>
</svg>
