<svg width="70" height="21" viewBox="0 0 70 21" fill="none" xmlns="http://www.w3.org/2000/svg">
<path d="M0 4.80669V0.065918H1.30511C1.62469 0.065918 1.90189 0.101055 2.13614 0.17133C2.37039 0.241605 2.55277 0.367654 2.68328 0.548919C2.81379 0.730184 2.87904 0.986743 2.87904 1.3186C2.87904 1.51381 2.86343 1.68726 2.83219 1.83952C2.80096 1.99179 2.74351 2.12341 2.65929 2.2344C2.57563 2.34595 2.45516 2.43853 2.29955 2.51216L2.94932 4.80669H1.86675L1.34582 2.68227H1.04743V4.80669H0ZM1.04743 2.07935H1.34024C1.4886 2.07935 1.6035 2.05314 1.68548 2.00015C1.76747 1.94773 1.82492 1.87132 1.85838 1.77204C1.89129 1.67276 1.90802 1.55229 1.90802 1.4123C1.90802 1.20928 1.87065 1.05144 1.79703 0.93822C1.72285 0.824999 1.58621 0.768668 1.38709 0.768668H1.04743V2.07991V2.07935Z" fill="#3622E6"/>
<path d="M3.04932 4.80669L3.94504 0.065918H5.13916L6.02317 4.80669H5.05773L4.89989 3.80611H4.20328L4.0393 4.80669H3.05043H3.04932ZM4.29586 3.17977H4.7995L4.54796 1.33031L4.29642 3.17977H4.29586Z" fill="#3622E6"/>
<path d="M6.26855 4.80669V0.065918H7.46825C7.88209 0.065918 8.20391 0.117788 8.43425 0.220969C8.6646 0.324151 8.82634 0.486452 8.92004 0.706759C9.01374 0.927065 9.06059 1.21318 9.06059 1.564V3.28462C9.06059 3.6399 9.01374 3.92937 8.92004 4.15358C8.82634 4.37779 8.66571 4.54288 8.43704 4.64829C8.20893 4.7537 7.8899 4.80613 7.47996 4.80613H6.26855V4.80669ZM7.31599 4.08107H7.47996C7.64003 4.08107 7.75493 4.05765 7.8252 4.0108C7.89548 3.96395 7.93954 3.89367 7.95683 3.79997C7.97468 3.70627 7.98304 3.58915 7.98304 3.4486V1.38329C7.98304 1.24274 7.97244 1.12952 7.95069 1.04363C7.92894 0.957741 7.88321 0.895274 7.81293 0.856233C7.74266 0.817191 7.62944 0.79767 7.47327 0.79767H7.31543V4.08107H7.31599Z" fill="#3622E6"/>
<path d="M9.33936 4.80669V0.065918H10.3868V4.80669H9.33936Z" fill="#3622E6"/>
<path d="M12.0886 4.87686C11.7333 4.87686 11.4527 4.81439 11.2458 4.68946C11.0389 4.56453 10.8905 4.38493 10.8007 4.15068C10.7109 3.91643 10.6663 3.63757 10.6663 3.31352V1.55163C10.6663 1.22368 10.7109 0.944808 10.8007 0.714462C10.8905 0.484116 11.0389 0.307871 11.2458 0.184611C11.4527 0.0619089 11.7333 0 12.0886 0C12.4438 0 12.7316 0.0613512 12.9402 0.184611C13.1488 0.307314 13.2983 0.484116 13.3881 0.714462C13.4779 0.944808 13.5225 1.22368 13.5225 1.55163V3.31352C13.5225 3.63757 13.4773 3.91643 13.3881 4.15068C13.2983 4.38493 13.1488 4.56453 12.9402 4.68946C12.7316 4.81439 12.4477 4.87686 12.0886 4.87686ZM12.0886 4.13395C12.1979 4.13395 12.2776 4.10662 12.3284 4.05197C12.3791 3.99731 12.412 3.92703 12.4277 3.84114C12.4433 3.75525 12.4511 3.66768 12.4511 3.57789V1.29507C12.4511 1.20137 12.4433 1.11269 12.4277 1.02903C12.412 0.945366 12.3786 0.875648 12.3284 0.82099C12.2776 0.766332 12.1979 0.739003 12.0886 0.739003C11.987 0.739003 11.9112 0.766332 11.8604 0.82099C11.8097 0.875648 11.7768 0.944808 11.7612 1.02903C11.7455 1.11269 11.7377 1.20193 11.7377 1.29507V3.57789C11.7377 3.66768 11.7444 3.75525 11.7584 3.84114C11.7718 3.92703 11.803 3.99731 11.8521 4.05197C11.9006 4.10662 11.9798 4.13395 12.0891 4.13395H12.0886Z" fill="#3622E6"/>
<path d="M0 20.7463V6.1626H6.30132V8.34112H3.22261V12.0138H5.90533V14.2643H3.22261V20.7458H0V20.7463Z" fill="#3622E6"/>
<path d="M7.09326 20.7463V6.1626H13.6467V8.35897H10.3159V11.9776H12.8547V14.2102H10.3159V18.5672H13.6829V20.7458H7.09326V20.7463Z" fill="#3622E6"/>
<path d="M14.4215 20.7463V6.1626H17.6441V18.5678H20.9927V20.7463H14.4209H14.4215Z" fill="#3622E6"/>
<path d="M21.6948 20.7463V6.1626H24.9174V20.7463H21.6948Z" fill="#3622E6"/>
<path d="M30.5526 20.9624C29.4483 20.9624 28.5749 20.7611 27.9329 20.3589C27.291 19.9568 26.8375 19.3929 26.5737 18.6668C26.3094 17.9406 26.1777 17.0856 26.1777 16.1012V10.8439C26.1777 9.83554 26.3099 8.96882 26.5737 8.24209C26.8375 7.51591 27.291 6.95483 27.9329 6.55883C28.5749 6.16284 29.4483 5.96484 30.5526 5.96484C31.657 5.96484 32.4763 6.1422 33.0825 6.49581C33.6882 6.84997 34.1177 7.34525 34.3698 7.98107C34.6219 8.61745 34.7479 9.3492 34.7479 10.1774V11.4379H31.5973V9.97944C31.5973 9.69165 31.5822 9.41557 31.5521 9.1512C31.522 8.88739 31.435 8.6682 31.2911 8.49419C31.1472 8.32017 30.9007 8.23316 30.5526 8.23316C30.2046 8.23316 29.9676 8.32352 29.8053 8.50311C29.643 8.68326 29.5409 8.90803 29.4991 9.17853C29.4567 9.44847 29.436 9.73404 29.436 10.0335V16.8932C29.436 17.2172 29.4628 17.5145 29.5169 17.7844C29.571 18.0544 29.6792 18.2702 29.841 18.4325C30.0033 18.5948 30.2397 18.6757 30.5521 18.6757C30.8878 18.6757 31.1282 18.5887 31.2721 18.4147C31.416 18.2407 31.5064 18.0159 31.5421 17.7392C31.5783 17.4632 31.5962 17.181 31.5962 16.8932V15.3627H34.7468V16.6232C34.7468 17.4515 34.6236 18.1927 34.3776 18.8469C34.1316 19.5011 33.7055 20.017 33.0993 20.3952C32.493 20.7733 31.6436 20.9624 30.5515 20.9624H30.5526Z" fill="#3622E6"/>
<path d="M35.8101 20.7463V6.1626H39.0327V20.7463H35.8101Z" fill="#3622E6"/>
<path d="M40.4912 20.7463V6.1626H44.1823C45.4545 6.1626 46.4445 6.32155 47.1528 6.63946C47.8612 6.95737 48.3592 7.45599 48.647 8.13364C48.9348 8.81185 49.0793 9.6914 49.0793 10.7712V16.0647C49.0793 17.1567 48.9354 18.048 48.647 18.7385C48.3592 19.429 47.8639 19.9359 47.1618 20.26C46.4596 20.584 45.4785 20.7463 44.218 20.7463H40.4912ZM43.7138 18.5137H44.218C44.7099 18.5137 45.0641 18.4418 45.2805 18.2979C45.4963 18.154 45.6313 17.9376 45.6854 17.6498C45.7395 17.362 45.7663 17.0017 45.7663 16.5694V10.214C45.7663 9.78176 45.7334 9.43373 45.6676 9.16992C45.6012 8.90611 45.4607 8.71369 45.2443 8.59378C45.0284 8.47386 44.6798 8.41363 44.2002 8.41363H43.7138V18.5143V18.5137Z" fill="#3622E6"/>
<path d="M49.3853 20.7463L52.14 6.1626H55.8127L58.5311 20.7463H55.5606L55.0743 17.6676H52.932L52.4278 20.7463H49.3848H49.3853ZM53.2203 15.7412H54.7686L53.9945 10.0517L53.2203 15.7412Z" fill="#3622E6"/>
<path d="M69.5671 8.13413C69.2794 7.45648 68.7807 6.95786 68.073 6.63995C67.3646 6.32204 66.3747 6.16309 65.1025 6.16309H59.1943V20.7468H65.1387C66.3992 20.7468 67.3803 20.5845 68.0824 20.2605C68.7846 19.9364 69.2799 19.4294 69.5677 18.739C69.8555 18.049 69.9999 17.1578 69.9999 16.0652V10.7717C69.9999 9.69134 69.8561 8.81234 69.5677 8.13413H69.5671ZM68.102 14.1209C67.5409 14.7695 66.842 15.2046 66.0099 15.4037C65.6329 15.494 65.2419 15.5236 65.045 15.5532C63.5932 15.5069 62.5302 15.0479 61.7003 14.0885C61.437 13.784 61.4638 13.6111 61.7945 13.3819C61.9072 13.3038 62.0232 13.2291 62.1386 13.1543C62.3879 12.9937 62.4978 13.0082 62.7008 13.2307C63.1543 13.7282 63.7037 14.0562 64.3713 14.1683C65.3897 14.3401 66.2771 14.0735 67.0183 13.3495C67.3256 13.0489 67.3814 13.0383 67.7333 13.2899C67.8331 13.3613 67.9358 13.4293 68.0345 13.5029C68.2961 13.6998 68.3167 13.8727 68.102 14.1209Z" fill="#3622E6"/>
</svg>
