<svg width="64" height="28" viewBox="0 0 64 28" fill="none" xmlns="http://www.w3.org/2000/svg">
<path d="M30.25 13.4211C30.6544 12.3476 30.8699 10.9941 30.9021 9.36718H30.9086C30.9086 9.29425 30.9064 9.22454 30.9053 9.15269C30.9053 9.08083 30.9086 9.01112 30.9086 8.93819H30.9021C30.8699 7.31017 30.6544 5.9567 30.25 4.88423C29.8103 3.71737 27.9914 0.282227 23.9332 0.282227H16.9578V27.1102H21.7228V17.6371C22.2537 17.8322 22.8424 17.962 23.4902 18.0049L26.1446 27.1113H30.9096L27.527 16.9228C29.1347 15.8128 29.9712 14.1622 30.25 13.4222V13.4211ZM21.7217 2.25129H23.9332C25.7124 2.25129 26.1446 4.067 26.1446 6.24627V12.058C26.1446 14.2373 24.9488 14.7993 23.9332 14.7993H21.7217V2.25129Z" fill="white"/>
<path d="M47.2425 8.93819H47.2361C47.2039 7.31017 46.9884 5.9567 46.584 4.88423C46.1443 3.71737 44.3254 0.282227 40.2671 0.282227H33.2917V27.1102H38.0568V17.6371C38.7067 17.8751 39.4381 18.0242 40.2682 18.0242C44.3265 18.0242 46.1454 14.588 46.5851 13.4222C46.9894 12.3487 47.205 10.9952 47.2372 9.36826H47.2436C47.2436 9.29533 47.2415 9.22562 47.2404 9.15376C47.2404 9.0819 47.2436 9.01219 47.2436 8.93926L47.2425 8.93819ZM42.4775 12.058C42.4775 14.2373 41.2817 14.7993 40.2661 14.7993H38.0546V2.2513H40.2661C42.0453 2.2513 42.4775 4.067 42.4775 6.24627V12.058Z" fill="white"/>
<path d="M63.5765 8.93819H63.5701C63.5379 7.31017 63.3223 5.9567 62.918 4.88423C62.4783 3.71737 60.6594 0.282227 56.6011 0.282227H49.6257V27.1102H54.3907V17.6371C55.0407 17.8751 55.7721 18.0242 56.6022 18.0242C60.6605 18.0242 62.4794 14.588 62.9191 13.4222C63.3234 12.3487 63.539 10.9952 63.5712 9.36826H63.5776C63.5776 9.29533 63.5754 9.22562 63.5744 9.15376C63.5744 9.0819 63.5776 9.01219 63.5776 8.93926L63.5765 8.93819ZM58.8115 12.058C58.8115 14.2373 57.6157 14.7993 56.6001 14.7993H54.3886V2.2513H56.6001C58.3793 2.2513 58.8115 4.067 58.8115 6.24627V12.058Z" fill="white"/>
<path d="M13.3191 4.61165C12.8794 3.44265 11.0562 0 6.98933 0C2.9225 0 1.10036 3.44265 0.660646 4.61165C0.219858 5.78065 0 7.27783 0 9.10319V18.3265C0 20.1519 0.219858 21.649 0.660646 22.818C1.07248 23.913 2.69835 27.0028 6.24504 27.39V25.3609C4.84867 24.9619 4.7736 23.3446 4.7736 21.4528V5.97692C4.7736 3.79335 4.87119 1.97336 6.98933 1.97336C9.10748 1.97336 9.20507 3.79335 9.20507 5.97692V11.5452H13.9797V9.10319C13.9797 7.27783 13.7599 5.78065 13.3191 4.61165Z" fill="white"/>
<path d="M9.46881 14.8001H7.73462V21.0441H9.20606V21.4527C9.20606 23.3446 9.13206 24.9619 7.73462 25.3608V27.39C11.2813 27.0039 12.9072 23.913 13.319 22.818C13.7598 21.649 13.9797 20.1518 13.9797 18.3265V14.7991H9.46881V14.8001Z" fill="white"/>
</svg>
