<svg width="87" height="22" viewBox="0 0 87 22" fill="none" xmlns="http://www.w3.org/2000/svg">
<path d="M8.09482 21.3801H0L1.74361 7.2915H6.14132L4.94142 16.9623L10.0956 16.9609L8.09482 21.3801Z" fill="#00CAF8"/>
<path d="M19.3887 19.4705H14.8678L13.9337 21.3811H9.28882L15.9939 7.29248H21.2713L24.4584 21.3811H19.815L19.3894 19.4705H19.3887ZM18.5649 15.8888L17.9166 13.0047L16.5598 15.8888H18.5649Z" fill="#00CAF8"/>
<path d="M81.3928 19.4718H76.8712L75.9908 21.3415L71.3237 21.3329L77.9973 7.13477H83.2754L86.461 21.3329H81.8176L81.3921 19.4718H81.3928ZM80.569 15.85L79.9207 12.9659L78.5647 15.85H80.5697H80.569Z" fill="#00CAF8"/>
<path d="M38.6588 16.8947H44.5773L42.3824 21.3339H30.4429L37.292 11.5342H31.6485L33.8377 7.13574H45.5243L38.6595 16.8947H38.6588Z" fill="#00CAF8"/>
<path d="M70.5696 21.3801H67.4957L63.7098 14.7624L62.8974 21.3801H58.4539L60.1975 7.2915H64.7456L68.4449 13.6219L69.2013 7.2915H73.6657L72.4307 17.4616L70.5696 21.3808V21.3801Z" fill="#00CAF8"/>
<path d="M59.8221 15.5672C59.8221 15.141 59.7705 14.7154 59.6652 14.3021C59.4367 13.4088 59.0749 12.5485 58.6681 11.7232C58.2619 10.9001 57.7998 10.0835 57.2117 9.37358C55.4903 7.2897 52.6557 6.36058 50.008 6.72091C49.3905 6.80472 48.7716 6.96017 48.2229 7.26319C48.1978 7.2768 48.1792 7.29185 48.1634 7.30689C47.5817 7.48884 47.0223 7.74315 46.4943 8.06623C45.2127 8.85135 44.2041 9.98678 43.5787 11.35C43.5164 11.4861 43.4577 11.6244 43.4039 11.7648C43.2413 11.9059 43.1031 12.0778 42.987 12.2576C41.7284 14.1968 42.1016 17.7456 44.3266 18.881C44.4255 19.0164 44.5286 19.1497 44.6368 19.2801C45.9606 20.8697 47.8876 21.8554 49.9242 21.985C50.0847 21.995 50.2444 22.0001 50.4042 22.0001C52.3892 22.0001 54.3011 21.2178 55.7131 19.8145C55.9638 19.9269 56.2296 19.9943 56.5047 20.0129C56.5562 20.0165 56.6071 20.0179 56.6587 20.0179C57.4288 20.0179 58.1687 19.6296 58.7569 18.9126C59.3636 18.1726 59.7383 17.1632 59.8114 16.0715C59.8228 15.9024 59.8257 15.7341 59.8221 15.5679V15.5672ZM42.8824 16.4626C42.5543 15.411 42.5851 14.204 42.9333 13.2297C42.838 13.8028 42.8072 14.3881 42.8445 14.9726C42.9075 15.9719 43.1661 16.934 43.6038 17.8187C43.2929 17.4498 43.0472 16.992 42.8824 16.4626ZM43.6948 12.9439C43.7987 12.4883 43.9498 12.0434 44.1482 11.6108C45.0208 9.70883 46.6526 8.3585 48.5853 7.83341C48.5925 7.83198 48.6004 7.83054 48.6075 7.82911C50.9379 7.37064 53.5225 8.35205 54.9115 10.2812C55.2818 10.7955 55.6071 11.3665 55.8442 11.9732C55.4681 12.1595 55.1164 12.446 54.8076 12.8235C54.5791 13.1022 54.3842 13.4188 54.2252 13.7634L53.8742 13.7713C53.8592 13.7433 53.8319 13.7233 53.8004 13.7168C50.1628 13.0062 48.8024 13.3565 47.9435 13.8458C47.6727 13.7699 46.9778 13.7799 46.9778 13.7799C46.3654 13.0857 44.9183 12.9238 43.6948 12.9446V12.9439ZM49.9636 21.3582C48.0982 21.24 46.3324 20.336 45.1182 18.8782C44.6948 18.3696 44.351 17.8137 44.0931 17.2241C45.7636 17.4433 46.5609 16.6367 46.5609 16.6367C46.8381 16.3523 46.9291 15.3079 46.9657 15.0958C47.0158 14.8 47.4585 14.8136 47.4585 14.8136C47.4585 14.8136 47.9872 14.7813 48.0646 15.2069C48.1691 15.7821 48.6319 16.8781 48.6319 16.8781C49.3669 18.2936 51.963 18.2456 52.7982 17.7743C53.511 17.3724 53.4931 15.8845 53.5468 15.5063C53.6206 14.9855 53.8083 14.8107 53.9179 14.6345C53.8334 14.9647 53.7768 15.31 53.7531 15.6646C53.6801 16.7563 53.9165 17.8065 54.4193 18.621C54.6328 18.9663 54.8835 19.2536 55.1615 19.4756C53.7725 20.7959 51.8892 21.4807 49.9643 21.3582H49.9636ZM56.5376 19.5114C55.1436 19.4176 54.1185 17.7069 54.2531 15.6983C54.3191 14.7097 54.6543 13.8021 55.1952 13.1416C55.4423 12.84 55.7181 12.6086 56.0104 12.4532C56.0691 12.6466 56.1178 12.8422 56.1558 13.0413C56.1615 13.0728 56.1665 13.1036 56.1716 13.1352C55.423 13.5822 54.8929 14.6897 54.8929 15.987C54.8929 17.679 55.7948 19.0501 56.9073 19.0501C57.2088 19.0501 57.4947 18.9484 57.7511 18.7686C57.7447 18.77 57.7382 18.77 57.7325 18.7714C57.7583 18.7643 57.7841 18.7578 57.8091 18.7492C57.8149 18.75 57.8213 18.7507 57.827 18.7514C57.9682 18.7664 58.1136 18.7586 58.2604 18.7235C57.7783 19.2536 57.1737 19.5544 56.5376 19.5122V19.5114ZM56.0598 16.8581C56.1501 17.3574 56.3585 18.0694 56.7504 18.4828C56.1952 18.035 55.8012 17.1374 55.7725 16.0937C55.7539 15.4211 55.8907 14.8014 56.1314 14.3179C56.0971 14.5428 56.0577 14.7677 56.0268 14.992C55.943 15.6073 55.9488 16.2456 56.0598 16.8581ZM59.3171 16.1439C59.244 16.8652 59.0291 17.8431 58.3908 18.2886C57.7339 18.7471 57.1451 18.0021 56.913 17.4526C56.4918 16.4548 56.534 15.4082 56.7031 14.3616C56.7926 13.8071 56.8435 13.2713 56.7146 12.7182C56.6028 12.2376 56.433 11.7727 56.216 11.3299C55.784 10.4503 55.178 9.62931 54.4458 8.97671C53.6292 8.24961 52.6471 7.79688 51.5948 7.52466C50.8411 7.32981 50.0618 7.21806 49.2816 7.20302C50.0367 6.98095 50.8619 6.95158 51.6291 7.00674C52.8484 7.09413 54.0497 7.42365 55.092 8.07196C55.7425 8.4767 56.3249 8.98101 56.8134 9.57201C57.3149 10.1773 57.7139 10.8679 58.0735 11.5642C58.4582 12.3085 58.7984 13.0821 59.0556 13.8802C59.2941 14.6223 59.3959 15.3645 59.3171 16.1453V16.1439Z" fill="#00CAF8"/>
<path d="M59.1646 15.8005C59.1686 15.0092 58.8364 14.3661 58.4226 14.364C58.0088 14.3619 57.67 15.0016 57.666 15.7929C57.662 16.5841 57.9943 17.2273 58.4081 17.2294C58.8219 17.2315 59.1606 16.5917 59.1646 15.8005Z" fill="#00CAF8"/>
<path d="M53.2955 8.72318C53.2909 8.72091 53.2864 8.71788 53.2818 8.71484Z" fill="#00CAF8"/>
<path d="M5.22652 5.85283L4.67277 5.02114C4.55816 5.02902 4.43423 5.0455 4.31173 5.0455H3.27588L3.20496 5.85283H1.43484L1.93056 0.194336H4.73581C5.40489 0.194336 5.97368 0.398497 6.40564 0.871292C6.83688 1.34409 7.0303 1.9315 6.97228 2.59986C6.9207 3.18655 6.6886 3.70018 6.29174 4.13286L7.43074 5.84495L5.22652 5.85283ZM4.46646 3.2761C4.84183 3.2761 5.16204 2.96592 5.19428 2.59914C5.22652 2.23237 4.95932 1.93078 4.58395 1.93078H3.54809L3.43061 3.2761H4.46646Z" fill="#00CAF8"/>
<path d="M11.246 5.11069H9.44369L9.11703 5.86071L7.25809 5.85283L9.71877 0.194336H11.8227L13.2934 5.85283H11.4423L11.246 5.11069ZM10.8664 3.66795L10.5677 2.51819L10.0676 3.66795H10.8671H10.8664Z" fill="#00CAF8"/>
<path d="M18.0054 5.02958C17.3944 5.58404 16.7102 5.85339 15.9351 5.85339H13.6192L14.1149 0.187012H16.4309C17.206 0.187012 17.8421 0.464241 18.3564 1.0187C18.8622 1.57316 19.0814 2.24152 19.0133 3.0159C18.9446 3.79888 18.6093 4.46724 18.0054 5.02958ZM17.259 3.03238C17.2833 2.75515 17.2074 2.50227 17.0226 2.28235C16.8542 2.06243 16.5949 1.94781 16.2769 1.94781H15.7138L15.5254 4.10046H15.7045C16.1114 4.10834 16.5104 4.11694 16.8743 3.7824C17.1222 3.56248 17.2353 3.29313 17.2583 3.03238H17.259Z" fill="#00CAF8"/>
<path d="M21.0487 5.85283H19.2871L19.7821 0.194336H21.5437L21.0487 5.85283Z" fill="#00CAF8"/>
<path d="M26.7352 5.18498C26.0883 5.77168 25.3527 6.07398 24.5124 6.07398C23.6721 6.07398 22.9894 5.7724 22.445 5.18498C21.9098 4.58969 21.6706 3.87262 21.7437 3.04093C21.8174 2.20136 22.1813 1.48357 22.8203 0.896878C23.4679 0.301586 24.2036 0 25.0439 0C25.8842 0 26.5669 0.301586 27.1106 0.896878C27.6543 1.48357 27.8936 2.20136 27.8198 3.04093C27.7467 3.87262 27.3828 4.59041 26.7352 5.18498ZM25.7531 2.14334C25.5224 1.89046 25.2395 1.76797 24.8885 1.76797C24.5374 1.76797 24.2251 1.89046 23.9507 2.14334C23.685 2.38761 23.536 2.68992 23.5052 3.04021C23.4744 3.39051 23.5704 3.69281 23.7931 3.94497C24.0245 4.18997 24.3075 4.31175 24.6664 4.31175C25.0253 4.31175 25.3211 4.18925 25.5955 3.94497C25.8785 3.6921 26.0275 3.39051 26.0583 3.04021C26.0891 2.68992 25.9931 2.38833 25.7531 2.14334Z" fill="#00CAF8"/>
</svg>
