<svg width="51" height="42" viewBox="0 0 51 42" fill="none" xmlns="http://www.w3.org/2000/svg">
<path d="M0 21.7728L2.14673 0.551692L25.1297 0L24.5727 5.69837L46.3221 5.19938L50.5442 20.6421L41.8799 20.8409L36.6945 27.8154L42.9173 41.8219L35.5558 42L32.4264 35.2589L3.60635 36.0054L5.05062 21.6708L0 21.7728Z" fill="black"/>
<path d="M7.10646 7.92872L9.18581 14.2615L12.4473 7.82866L16.1183 7.71191L15.0416 19.8045L11.3459 19.8872L11.7508 15.4256L9.60275 19.9225L7.71485 19.9819L6.38799 15.595L5.97505 20.0239L2.18726 20.1L3.43473 8.0448L7.10646 7.92805V7.92872Z" fill="white"/>
<path d="M32.4938 11.8384L32.2683 14.5896L34.0101 14.3321L33.9481 15.0952C33.9481 15.0952 33.5538 16.0572 32.1916 16.0999C31.0669 16.1359 30.0122 14.9498 30.1563 13.2167C30.3004 11.4842 31.5565 10.208 32.6786 10.1734C33.848 10.136 34.5211 11.148 34.5211 11.148L36.5785 8.49026C35.5124 7.2708 34.3937 6.71377 32.7226 6.76647C29.5532 6.86721 26.714 9.92119 26.4225 13.3354C26.131 16.749 28.4812 19.6382 31.6719 19.5381C32.0795 19.5254 32.4624 19.5088 32.822 19.4814C34.5405 19.3507 36.0308 18.2419 36.6799 16.6456C36.8593 16.2039 36.9687 15.7363 37.0041 15.2607L37.2689 11.6863L32.4945 11.8378L32.4938 11.8384Z" fill="white"/>
<path d="M41.6103 7.18233L44.3714 7.09961L47.6843 19.0601L43.9752 19.1775L43.5569 17.2422L40.7137 17.3323L40.0313 19.2435L36.3215 19.3609L41.6096 7.183L41.6103 7.18233ZM42.9405 14.0355L42.5396 12.0001L41.8245 14.0708L42.9405 14.0355Z" fill="white"/>
<path d="M16.0391 19.7823L17.0791 7.68109L26.7474 7.48096L26.5459 10.5516L20.4072 10.7758L20.3345 11.9545L25.6613 11.7411L25.4445 14.9692L20.1357 15.1826L20.0663 16.304L26.1757 15.9832L25.9488 19.5588L16.0391 19.7823Z" fill="white"/>
<path d="M6.07404 6.73025L5.47698 5.13588L5.27018 5.14189L5.08406 6.76027L3.51904 6.79696L4.03271 1.95381L6.16943 1.88844C6.77516 1.87042 7.22612 1.96182 7.55367 2.1973C7.88122 2.43279 8.08201 2.84773 8.02197 3.3754C7.90857 4.36071 7.26281 4.73029 7.034 4.86371L7.92658 6.67355L6.07471 6.73025H6.07404ZM6.24949 3.16994C6.18478 3.11523 6.08204 3.08388 5.90393 3.08922L5.49766 3.10189L5.40027 3.94577L5.80653 3.9331C6.08405 3.92443 6.35289 3.81102 6.38958 3.49481C6.41359 3.28334 6.31486 3.21663 6.24949 3.16927V3.16994Z" fill="white"/>
<path d="M10.2561 6.63585V6.28829C10.0587 6.46974 9.7478 6.70323 9.28484 6.7179C8.6084 6.73858 7.92996 6.4644 8.03135 5.58517C8.13275 4.70526 9.05402 4.47378 9.58303 4.43642L10.4276 4.37571L10.4316 4.34036C10.4543 4.14356 10.3068 4.00747 9.87922 4.02081C9.45161 4.03349 8.96863 4.22361 8.70313 4.37171L8.42561 3.3844C8.80052 3.21162 9.46629 2.98147 10.2141 2.95879C11.3969 2.92277 12.1467 3.31369 11.9999 4.58718L11.7731 6.58982L10.2561 6.63585ZM10.0307 5.1729C9.85921 5.18557 9.66642 5.25428 9.6424 5.46509C9.61772 5.67656 9.78783 5.74127 9.96595 5.73593C10.1441 5.73059 10.2635 5.62186 10.3028 5.58583L10.3542 5.14221L10.0313 5.1729H10.0307Z" fill="white"/>
<path d="M15.2539 1.70837L16.8563 1.65967L16.2979 6.49815L14.7803 6.54485L14.8463 6.07854C14.5608 6.40276 14.1158 6.57086 13.6529 6.58487C12.6202 6.61623 12.0725 5.81904 12.1939 4.76369C12.3153 3.70834 13.0505 2.87246 14.0831 2.8411C14.831 2.81842 15.0851 3.196 15.0851 3.196L15.2539 1.70837ZM14.454 4.05656C14.1545 4.0659 13.8597 4.28538 13.813 4.69298C13.7663 5.0939 14.0131 5.29737 14.3126 5.28803C14.6188 5.27869 14.9063 5.05921 14.953 4.65829C14.9997 4.25002 14.7609 4.04722 14.4547 4.05656H14.454Z" fill="white"/>
<path d="M16.7409 6.49032L17.1539 2.81793L18.7562 2.7699L18.3433 6.44162L16.7409 6.49032ZM17.9657 2.6665C17.4534 2.68184 17.1452 2.39699 17.1972 1.93936C17.2499 1.48106 17.6262 1.17553 18.1385 1.16019C18.6582 1.14418 18.959 1.42969 18.907 1.88799C18.8543 2.34496 18.4854 2.65049 17.9657 2.6665Z" fill="white"/>
<path d="M20.6842 6.37122C19.4734 6.40791 18.6609 5.75949 18.7983 4.56338C18.9358 3.36727 19.9044 2.66481 21.1152 2.62745C22.326 2.59076 23.1385 3.23918 23.0011 4.4353C22.8636 5.63141 21.8957 6.33387 20.6849 6.37122H20.6842ZM20.9731 3.85892C20.6529 3.86826 20.4461 4.12042 20.4034 4.49333C20.3613 4.85957 20.5114 5.1004 20.8317 5.09039C21.1525 5.08105 21.3587 4.82889 21.4007 4.46265C21.4434 4.08974 21.294 3.84891 20.9731 3.85825V3.85892Z" fill="white"/>
<path d="M11.2428 21.097L13.6417 28.1429L17.2867 20.9603L21.4414 20.8662L20.32 34.2889L16.1346 34.383L16.5556 29.4738L14.1593 34.427L12.0213 34.4751L10.4836 29.6106L10.046 34.5198L5.77588 34.5731L7.08807 21.1911L11.2434 21.097H11.2428Z" fill="white"/>
<path d="M22.4458 20.8443L26.5999 20.7502L25.5238 34.139L21.3324 34.247L22.4465 20.8443H22.4458Z" fill="white"/>
<path d="M35.8586 20.539L30.7212 27.5469L32.5151 31.2907L40.2754 20.4363L35.8586 20.539Z" fill="#F7E131"/>
<path d="M33.2863 24.059L26.2377 34.1242L30.6466 34.0228L35.0107 27.8114L33.2863 24.059Z" fill="#80FFD3"/>
<path d="M31.7872 20.6327L41.0159 40.8925L37.1841 40.9939L27.4184 20.7314L31.7872 20.6327Z" fill="#FF1749"/>
</svg>
