<svg width="93" height="28" viewBox="0 0 93 28" fill="none" xmlns="http://www.w3.org/2000/svg">
<path d="M35.8868 26.8569L35.7799 27.1074L35.7488 27.184C35.6634 27.3674 35.5358 27.46 35.3659 27.46C35.2606 27.46 35.168 27.4233 35.0899 27.3499C35.0117 27.2765 34.9726 27.1888 34.9726 27.0867C34.9726 27.022 34.9909 26.9486 35.0284 26.8673L35.0643 26.7907L36.1939 24.2611C36.2657 24.1008 36.3902 24.021 36.5672 24.021C36.6486 24.021 36.7228 24.0417 36.7898 24.0824C36.856 24.1231 36.9063 24.1829 36.9406 24.2611L38.1005 26.7803C38.138 26.8617 38.1619 26.9215 38.1723 26.959C38.1826 26.9965 38.1874 27.0388 38.1874 27.0867C38.1874 27.1888 38.1483 27.2773 38.0702 27.3523C37.992 27.4273 37.8994 27.4648 37.7941 27.4648C37.6202 27.4648 37.4926 27.3746 37.4112 27.1935L37.3753 27.1122L37.2581 26.8569H35.8884H35.8868ZM36.572 25.1968L36.1684 26.178H36.9861L36.572 25.1968Z" fill="#31006F"/>
<path d="M41.738 26.7353L41.8043 26.7911C41.9135 26.89 41.9678 26.9953 41.9678 27.1078C41.9678 27.2203 41.9303 27.3096 41.8553 27.3862C41.7803 27.4628 41.6886 27.5011 41.5793 27.5011C41.4836 27.5011 41.3902 27.4604 41.2985 27.3782L41.2323 27.3216L41.064 27.1788C40.8933 27.2881 40.7265 27.3671 40.563 27.4165C40.3995 27.466 40.2271 27.4907 40.0469 27.4907C39.802 27.4907 39.5706 27.4444 39.3544 27.3527C39.1383 27.261 38.95 27.1357 38.7897 26.977C38.6293 26.819 38.5025 26.6324 38.4091 26.4178C38.315 26.2032 38.2687 25.975 38.2687 25.7333C38.2687 25.4916 38.315 25.2643 38.4067 25.0513C38.4985 24.8383 38.6245 24.6524 38.7849 24.4944C38.9452 24.3365 39.1327 24.2113 39.3465 24.1187C39.561 24.027 39.7892 23.9807 40.0309 23.9807C40.2726 23.9807 40.5064 24.0278 40.7209 24.1211C40.9355 24.2152 41.123 24.3421 41.2833 24.5016C41.4437 24.662 41.5705 24.8494 41.6639 25.0632C41.758 25.2778 41.8043 25.5076 41.8043 25.7533C41.8043 25.9032 41.7867 26.0436 41.7532 26.1753C41.7189 26.3061 41.6631 26.4465 41.5849 26.5965L41.738 26.7345V26.7353ZM40.0413 24.7577C39.9041 24.7577 39.7756 24.7832 39.656 24.8343C39.5363 24.8853 39.431 24.9547 39.3401 25.0433C39.2491 25.1318 39.1781 25.2355 39.1271 25.3544C39.076 25.4733 39.0497 25.5993 39.0497 25.7317C39.0497 25.8641 39.076 25.995 39.1295 26.1138C39.1829 26.2327 39.2539 26.3372 39.3425 26.4273C39.4318 26.5175 39.5371 26.5877 39.6584 26.6387C39.7796 26.6898 39.9089 26.7153 40.0461 26.7153C40.1833 26.7153 40.3061 26.6898 40.4258 26.6387C40.5454 26.5877 40.6491 26.5183 40.7369 26.4297C40.8238 26.3412 40.8933 26.2383 40.9451 26.121C40.9962 26.0037 41.0225 25.8769 41.0225 25.7413C41.0225 25.6057 40.997 25.482 40.9451 25.3616C40.8941 25.2411 40.8223 25.1366 40.7321 25.0481C40.6412 24.9595 40.5367 24.8893 40.4186 24.8367C40.3005 24.784 40.1745 24.7577 40.0413 24.7577Z" fill="#31006F"/>
<path d="M42.2488 24.5219V24.4349C42.2488 24.3017 42.2839 24.1964 42.3533 24.1182C42.4227 24.0401 42.5176 24.001 42.6365 24.001C42.7553 24.001 42.8511 24.0409 42.9229 24.1214C42.9947 24.2012 43.0297 24.3065 43.0297 24.4357V26.1118C43.0297 26.2003 43.0449 26.2825 43.076 26.3567C43.1071 26.4316 43.1486 26.4963 43.2013 26.5505C43.2539 26.6047 43.3169 26.6486 43.3903 26.6805C43.4637 26.7132 43.5427 26.7292 43.628 26.7292C43.727 26.7292 43.8195 26.7061 43.9065 26.6606C43.9934 26.6143 44.0636 26.5521 44.1186 26.4739C44.1561 26.4197 44.1833 26.3638 44.2008 26.308C44.2176 26.2514 44.2263 26.1796 44.2263 26.091V24.4357C44.2295 24.3025 44.2662 24.1972 44.3364 24.119C44.4066 24.0409 44.4992 24.0018 44.6148 24.0018C44.7305 24.0018 44.8294 24.0417 44.9012 24.1222C44.973 24.202 45.0081 24.3073 45.0081 24.4365V26.0918C45.0081 26.2896 44.973 26.4731 44.9036 26.6438C44.8334 26.8146 44.7377 26.9621 44.6148 27.0882C44.492 27.2142 44.3476 27.3131 44.1809 27.3849C44.0141 27.4567 43.8331 27.4918 43.6392 27.4918C43.4454 27.4918 43.2635 27.4559 43.0952 27.3849C42.9268 27.3131 42.7793 27.2158 42.6532 27.0914C42.5272 26.9669 42.4283 26.8209 42.3565 26.6518C42.2847 26.4835 42.2496 26.3032 42.2496 26.1126V24.5235L42.2488 24.5219Z" fill="#31006F"/>
<path d="M46.1426 23.7146C46.1219 23.7386 46.0931 23.7585 46.0557 23.7737C46.0182 23.7888 45.9807 23.7968 45.9432 23.7968C45.865 23.7968 45.7964 23.7681 45.739 23.7098C45.6807 23.6516 45.652 23.5838 45.652 23.5056C45.652 23.4274 45.6831 23.3572 45.7437 23.2958L45.9942 23.035C46.0317 22.9975 46.066 22.9712 46.0963 22.956C46.1274 22.9408 46.1641 22.9329 46.2088 22.9329C46.291 22.9329 46.3604 22.9616 46.4186 23.0198C46.4769 23.078 46.5056 23.1474 46.5056 23.2296C46.5056 23.3014 46.4784 23.3644 46.4242 23.4187L46.1434 23.7154L46.1426 23.7146ZM46.4386 26.9494V27.0364C46.4386 27.1696 46.4035 27.2757 46.3341 27.3554C46.2639 27.4352 46.1697 27.4759 46.0501 27.4759C45.9304 27.4759 45.8355 27.4352 45.7637 27.3531C45.6919 27.2717 45.6568 27.1656 45.6568 27.0364V24.4358C45.66 24.3026 45.6967 24.1973 45.7669 24.1191C45.8371 24.0409 45.9312 24.0018 46.0501 24.0018C46.1689 24.0018 46.2639 24.0417 46.3341 24.1223C46.4043 24.202 46.4386 24.3073 46.4386 24.4366V26.9502V26.9494Z" fill="#31006F"/>
<path d="M49.2999 25.3802H50.1686C50.2779 25.3834 50.3649 25.4137 50.4319 25.4695C50.4981 25.5262 50.5316 25.6036 50.5316 25.7017C50.5316 25.7998 50.4981 25.8796 50.4319 25.9394C50.3657 25.9992 50.2779 26.0288 50.1686 26.0288H49.2999V26.7236H50.4191C50.538 26.7268 50.6345 26.7603 50.7079 26.8233C50.7813 26.8863 50.818 26.9725 50.818 27.081C50.818 27.1894 50.7813 27.2772 50.7079 27.3418C50.6345 27.4064 50.538 27.4391 50.4191 27.4391H48.9728C48.6697 27.4327 48.5181 27.2804 48.5181 26.9844V24.486C48.5245 24.1828 48.6769 24.0312 48.9728 24.0312H50.3936C50.5124 24.0344 50.6082 24.0679 50.68 24.131C50.7518 24.194 50.7869 24.2801 50.7869 24.3886C50.7869 24.4971 50.751 24.5849 50.68 24.6495C50.6082 24.7141 50.5132 24.7468 50.3936 24.7468H49.2999V25.3802Z" fill="#31006F"/>
<path d="M52.2993 23.9802C52.4453 23.9802 52.5849 23.9969 52.7157 24.0312C52.8466 24.0655 52.9614 24.1126 53.0604 24.1716C53.1593 24.2315 53.2367 24.3009 53.2925 24.3814C53.3483 24.4612 53.3771 24.5473 53.3771 24.6391C53.3771 24.738 53.3435 24.8234 53.2773 24.8944C53.2111 24.9662 53.1298 25.0013 53.0348 25.0013C52.967 25.0013 52.9016 24.9789 52.841 24.935C52.8338 24.9319 52.8155 24.9175 52.7843 24.8912C52.754 24.8656 52.7141 24.8345 52.6671 24.797C52.5307 24.6877 52.3982 24.6335 52.2682 24.6335C52.1629 24.6335 52.072 24.6638 51.997 24.7252C51.922 24.7867 51.8845 24.8601 51.8845 24.9454C51.8845 25.0308 51.914 25.097 51.9739 25.1448C52.0337 25.1927 52.1414 25.235 52.2985 25.2725C52.4485 25.31 52.5777 25.3467 52.687 25.3826C52.7963 25.4185 52.8928 25.4568 52.9782 25.4974C53.1585 25.5828 53.2957 25.7001 53.3898 25.85C53.4839 26 53.5302 26.1739 53.5302 26.3709C53.5302 26.5377 53.4999 26.6892 53.4409 26.8257C53.381 26.9621 53.2965 27.0793 53.1856 27.1782C53.0747 27.2772 52.9439 27.3537 52.7923 27.408C52.6407 27.4622 52.4732 27.4902 52.289 27.4902C52.1222 27.4902 51.9627 27.4678 51.8111 27.4239C51.6595 27.3801 51.5263 27.3194 51.4123 27.2421C51.2982 27.1655 51.2072 27.0769 51.1386 26.9764C51.0708 26.8759 51.0365 26.7714 51.0365 26.6621C51.0365 26.6111 51.0461 26.5632 51.0644 26.5193C51.0828 26.4754 51.1083 26.4356 51.141 26.4021C51.1737 26.3678 51.2112 26.3406 51.2535 26.3199C51.2958 26.2992 51.3413 26.2896 51.3891 26.2896C51.4609 26.2896 51.5271 26.3039 51.5886 26.3327C51.65 26.3614 51.7234 26.414 51.8079 26.4882C51.9068 26.58 51.9986 26.647 52.0839 26.6876C52.1693 26.7283 52.2562 26.7491 52.3448 26.7491C52.4605 26.7491 52.557 26.714 52.6336 26.6446C52.7102 26.5752 52.7484 26.4874 52.7484 26.3813C52.7484 26.2928 52.7165 26.2186 52.6543 26.1588C52.5913 26.0989 52.49 26.0487 52.3504 26.008L52.0129 25.9107C51.7537 25.8357 51.5598 25.7519 51.4306 25.6602C51.3285 25.5924 51.2503 25.499 51.1953 25.3818C51.141 25.2645 51.1139 25.1305 51.1139 24.9805C51.1139 24.8305 51.1426 24.6997 51.2009 24.5769C51.2591 24.454 51.3397 24.3487 51.4434 24.2602C51.5471 24.1716 51.6723 24.103 51.8191 24.0536C51.9651 24.0041 52.1254 23.9794 52.2993 23.9794V23.9802Z" fill="#31006F"/>
<path d="M55.4982 26.9497V27.0366C55.495 27.1699 55.4583 27.276 55.3881 27.3557C55.3179 27.4355 55.2238 27.4762 55.1042 27.4762C54.9845 27.4762 54.8944 27.4355 54.8234 27.3533C54.7516 27.272 54.7157 27.1659 54.7157 27.0366V24.748H54.0823C53.9594 24.7448 53.8629 24.7113 53.7911 24.6483C53.7193 24.5852 53.6842 24.4991 53.6842 24.3906C53.6842 24.2821 53.7209 24.1991 53.7943 24.1329C53.8677 24.0667 53.9634 24.0332 54.0831 24.0332H56.1324C56.2513 24.0364 56.3478 24.0699 56.4212 24.1329C56.4946 24.1959 56.5313 24.2821 56.5313 24.3906C56.5313 24.4991 56.4946 24.5868 56.4212 24.6514C56.3478 24.7161 56.2521 24.7488 56.1324 24.7488H55.499V26.9513L55.4982 26.9497Z" fill="#31006F"/>
<path d="M58.4364 23.9807C58.6614 23.9807 58.8824 24.027 59.1009 24.1187C59.3187 24.2105 59.515 24.3405 59.6889 24.5072C59.8556 24.6676 59.9832 24.8542 60.0718 25.0672C60.1603 25.2802 60.205 25.506 60.205 25.7445C60.205 25.983 60.1587 26.2127 60.067 26.4241C59.9752 26.6355 59.8492 26.8198 59.6889 26.9786C59.5285 27.1373 59.3419 27.2626 59.1289 27.3543C58.9159 27.446 58.6885 27.4923 58.4468 27.4923C58.2051 27.4923 57.9722 27.446 57.7592 27.3543C57.5462 27.2626 57.3595 27.1373 57.2 26.9786C57.0396 26.8206 56.9136 26.6347 56.8218 26.4217C56.7301 26.2088 56.6838 25.9814 56.6838 25.7397C56.6838 25.498 56.7301 25.2698 56.8218 25.0552C56.9136 24.8407 57.0388 24.654 57.1976 24.4952C57.3563 24.3373 57.5414 24.2121 57.7544 24.1195C57.9674 24.0278 58.1947 23.9815 58.4364 23.9815V23.9807ZM58.4492 24.7577C58.3168 24.7577 58.1899 24.784 58.0695 24.8367C57.949 24.8893 57.8445 24.9595 57.756 25.0481C57.6674 25.1366 57.5972 25.2411 57.5446 25.3616C57.4919 25.482 57.4656 25.6089 57.4656 25.7413C57.4656 25.8737 57.4911 25.9998 57.5422 26.1186C57.5932 26.2375 57.6634 26.3412 57.7536 26.4297C57.8437 26.5183 57.9482 26.5877 58.0671 26.6387C58.186 26.6898 58.3136 26.7153 58.4492 26.7153C58.5848 26.7153 58.7117 26.6898 58.8289 26.6387C58.9462 26.5877 59.0491 26.5183 59.1376 26.4297C59.2262 26.3412 59.2956 26.2383 59.3466 26.121C59.3977 26.0037 59.4232 25.8769 59.4232 25.7413C59.4232 25.6057 59.3977 25.478 59.3466 25.3592C59.2956 25.2403 59.2262 25.1366 59.1376 25.0481C59.0491 24.9595 58.9454 24.8893 58.8265 24.8367C58.7077 24.784 58.5816 24.7577 58.4492 24.7577Z" fill="#31006F"/>
<path d="M62.315 24.2719L62.366 24.2001C62.4171 24.1323 62.4697 24.0812 62.5248 24.0469C62.579 24.0126 62.6404 23.9958 62.709 23.9958C62.8143 23.9958 62.9069 24.0341 62.985 24.1107C63.0632 24.1873 63.1023 24.2767 63.1023 24.3788C63.1023 24.4641 63.0696 24.5527 63.005 24.6444L62.9587 24.7162L62.0852 25.9838V27.036C62.082 27.1692 62.0453 27.2753 61.9751 27.3551C61.9049 27.4348 61.8124 27.4755 61.6967 27.4755C61.581 27.4755 61.4821 27.4348 61.4103 27.3527C61.3385 27.2713 61.3034 27.1652 61.3034 27.036V25.9838L60.4299 24.7162C60.3717 24.6308 60.3334 24.5662 60.3151 24.5223C60.2967 24.4785 60.2871 24.4306 60.2871 24.3796C60.2871 24.2774 60.3254 24.1881 60.402 24.1115C60.4786 24.0349 60.5711 23.9966 60.6804 23.9966C60.8096 23.9966 60.9237 24.0645 61.0226 24.2009L61.0689 24.2727L61.6919 25.1717L62.315 24.2727V24.2719Z" fill="#31006F"/>
<path d="M62.9976 27.4754C62.8149 27.3868 62.7232 27.2488 62.7232 27.0613C62.7232 26.9999 62.7352 26.9433 62.7591 26.8898C62.783 26.8372 62.8141 26.7901 62.8532 26.7494C62.8923 26.7087 62.9386 26.676 62.9928 26.6521C63.0471 26.6282 63.1045 26.6162 63.1651 26.6162C63.2258 26.6162 63.2832 26.6274 63.3351 26.6497C63.3877 26.6721 63.434 26.7024 63.4747 26.7415C63.5153 26.7805 63.5473 26.8268 63.5712 26.8795C63.5951 26.9321 63.6071 26.9895 63.6071 27.051C63.6071 27.0885 63.6023 27.1268 63.5919 27.1658C63.5816 27.2049 63.568 27.2488 63.5512 27.2959L63.3885 27.7402C63.3582 27.8184 63.3255 27.875 63.292 27.9085C63.2585 27.9428 63.2138 27.9596 63.1604 27.9596C63.1029 27.9596 63.0527 27.9388 63.0104 27.8982C62.9681 27.8575 62.9466 27.8112 62.9466 27.7601C62.9466 27.7258 62.9601 27.6684 62.9873 27.5862L63.0279 27.4889L62.9976 27.4738V27.4754Z" fill="#31006F"/>
<path d="M66.1311 26.8569L66.0242 27.1074L65.993 27.184C65.9077 27.3674 65.7801 27.46 65.6101 27.46C65.5048 27.46 65.4123 27.4233 65.3341 27.3499C65.2559 27.2765 65.2169 27.1888 65.2169 27.0867C65.2169 27.022 65.2352 26.9486 65.2727 26.8673L65.3086 26.7907L66.4382 24.2611C66.51 24.1008 66.6344 24.021 66.8115 24.021C66.8929 24.021 66.9671 24.0417 67.0341 24.0824C67.1003 24.1231 67.1505 24.1829 67.1848 24.2611L68.3447 26.7803C68.3822 26.8617 68.4062 26.9215 68.4165 26.959C68.4269 26.9965 68.4317 27.0388 68.4317 27.0867C68.4317 27.1888 68.3926 27.2773 68.3144 27.3523C68.2362 27.4273 68.1437 27.4648 68.0384 27.4648C67.8645 27.4648 67.7369 27.3746 67.6555 27.1935L67.6196 27.1122L67.5023 26.8569H66.1326H66.1311ZM66.8163 25.1968L66.4127 26.178H67.2303L66.8163 25.1968Z" fill="#31006F"/>
<path d="M71.9823 26.7353L72.0485 26.7911C72.1578 26.89 72.2121 26.9953 72.2121 27.1078C72.2121 27.2203 72.1746 27.3096 72.0996 27.3862C72.0246 27.4628 71.9329 27.5011 71.8236 27.5011C71.7279 27.5011 71.6345 27.4604 71.5428 27.3782L71.4766 27.3216L71.3083 27.1788C71.1375 27.2881 70.9708 27.3671 70.8073 27.4165C70.6438 27.466 70.4714 27.4907 70.2912 27.4907C70.0463 27.4907 69.8149 27.4444 69.5987 27.3527C69.3825 27.261 69.1943 27.1357 69.0339 26.977C68.8736 26.819 68.7468 26.6324 68.6534 26.4178C68.5593 26.2032 68.513 25.975 68.513 25.7333C68.513 25.4916 68.5593 25.2643 68.651 25.0513C68.7428 24.8383 68.8688 24.6524 69.0292 24.4944C69.1895 24.3365 69.377 24.2113 69.5908 24.1187C69.8053 24.027 70.0335 23.9807 70.2752 23.9807C70.5169 23.9807 70.7506 24.0278 70.9652 24.1211C71.1798 24.2152 71.3673 24.3421 71.5276 24.5016C71.688 24.662 71.8148 24.8494 71.9081 25.0632C72.0023 25.2778 72.0485 25.5076 72.0485 25.7533C72.0485 25.9032 72.031 26.0436 71.9975 26.1753C71.9632 26.3061 71.9073 26.4465 71.8292 26.5965L71.9823 26.7345V26.7353ZM70.2856 24.7577C70.1484 24.7577 70.0199 24.7832 69.9003 24.8343C69.7806 24.8853 69.6753 24.9547 69.5844 25.0433C69.4934 25.1318 69.4224 25.2355 69.3714 25.3544C69.3203 25.4733 69.294 25.5993 69.294 25.7317C69.294 25.8641 69.3203 25.995 69.3738 26.1138C69.4272 26.2327 69.4982 26.3372 69.5868 26.4273C69.6761 26.5175 69.7814 26.5877 69.9027 26.6387C70.0239 26.6898 70.1532 26.7153 70.2904 26.7153C70.4276 26.7153 70.5504 26.6898 70.6701 26.6387C70.7897 26.5877 70.8934 26.5183 70.9812 26.4297C71.0681 26.3412 71.1375 26.2383 71.1894 26.121C71.2404 26.0037 71.2668 25.8769 71.2668 25.7413C71.2668 25.6057 71.2412 25.482 71.1894 25.3616C71.1383 25.2411 71.0665 25.1366 70.9764 25.0481C70.8855 24.9595 70.781 24.8893 70.6629 24.8367C70.5448 24.784 70.4188 24.7577 70.2856 24.7577Z" fill="#31006F"/>
<path d="M72.493 24.5219V24.4349C72.493 24.3017 72.5281 24.1964 72.5975 24.1182C72.6669 24.0401 72.7619 24.001 72.8807 24.001C72.9996 24.001 73.0953 24.0409 73.1671 24.1214C73.2389 24.2012 73.274 24.3065 73.274 24.4357V26.1118C73.274 26.2003 73.2892 26.2825 73.3203 26.3567C73.3514 26.4316 73.3929 26.4963 73.4455 26.5505C73.4982 26.6047 73.5612 26.6486 73.6346 26.6805C73.708 26.7132 73.7869 26.7292 73.8723 26.7292C73.9712 26.7292 74.0638 26.7061 74.1507 26.6606C74.2377 26.6143 74.3079 26.5521 74.3629 26.4739C74.4004 26.4197 74.4275 26.3638 74.4451 26.308C74.4618 26.2514 74.4706 26.1796 74.4706 26.091V24.4357C74.4738 24.3025 74.5105 24.1972 74.5807 24.119C74.6509 24.0409 74.7434 24.0018 74.8591 24.0018C74.9748 24.0018 75.0737 24.0417 75.1455 24.1222C75.2173 24.202 75.2524 24.3073 75.2524 24.4365V26.0918C75.2524 26.2896 75.2173 26.4731 75.1479 26.6438C75.0777 26.8146 74.9819 26.9621 74.8591 27.0882C74.7362 27.2142 74.5919 27.3131 74.4251 27.3849C74.2584 27.4567 74.0773 27.4918 73.8835 27.4918C73.6896 27.4918 73.5077 27.4559 73.3394 27.3849C73.1711 27.3131 73.0235 27.2158 72.8975 27.0914C72.7714 26.9669 72.6725 26.8209 72.6007 26.6518C72.5289 26.4835 72.4938 26.3032 72.4938 26.1126V24.5235L72.493 24.5219Z" fill="#31006F"/>
<path d="M76.3869 23.7146C76.3662 23.7386 76.3374 23.7585 76.2999 23.7737C76.2625 23.7888 76.225 23.7968 76.1875 23.7968C76.1093 23.7968 76.0407 23.7681 75.9833 23.7098C75.925 23.6516 75.8963 23.5838 75.8963 23.5056C75.8963 23.4274 75.9274 23.3572 75.988 23.2958L76.2385 23.035C76.276 22.9975 76.3103 22.9712 76.3406 22.956C76.3717 22.9408 76.4084 22.9329 76.4531 22.9329C76.5353 22.9329 76.6047 22.9616 76.6629 23.0198C76.7212 23.078 76.7499 23.1474 76.7499 23.2296C76.7499 23.3014 76.7227 23.3644 76.6685 23.4187L76.3877 23.7154L76.3869 23.7146ZM76.6829 26.9494V27.0364C76.6829 27.1696 76.6478 27.2757 76.5784 27.3554C76.5082 27.4352 76.414 27.4759 76.2944 27.4759C76.1747 27.4759 76.0798 27.4352 76.008 27.3531C75.9362 27.2717 75.9011 27.1656 75.9011 27.0364V24.4358C75.9043 24.3026 75.941 24.1973 76.0112 24.1191C76.0814 24.0409 76.1755 24.0018 76.2944 24.0018C76.4132 24.0018 76.5082 24.0417 76.5784 24.1223C76.6486 24.202 76.6829 24.3073 76.6829 24.4366V26.9502V26.9494Z" fill="#31006F"/>
<path d="M79.5442 25.3802H80.4129C80.5222 25.3834 80.6091 25.4137 80.6761 25.4695C80.7423 25.5262 80.7758 25.6036 80.7758 25.7017C80.7758 25.7998 80.7423 25.8796 80.6761 25.9394C80.6099 25.9992 80.5222 26.0288 80.4129 26.0288H79.5442V26.7236H80.6634C80.7822 26.7268 80.8787 26.7603 80.9521 26.8233C81.0255 26.8863 81.0622 26.9725 81.0622 27.081C81.0622 27.1894 81.0255 27.2772 80.9521 27.3418C80.8787 27.4064 80.7822 27.4391 80.6634 27.4391H79.2171C78.914 27.4327 78.7624 27.2804 78.7624 26.9844V24.486C78.7688 24.1828 78.9211 24.0312 79.2171 24.0312H80.6378C80.7567 24.0344 80.8524 24.0679 80.9242 24.131C80.996 24.194 81.0311 24.2801 81.0311 24.3886C81.0311 24.4971 80.9952 24.5849 80.9242 24.6495C80.8524 24.7141 80.7575 24.7468 80.6378 24.7468H79.5442V25.3802Z" fill="#31006F"/>
<path d="M82.5436 23.9802C82.6896 23.9802 82.8292 23.9969 82.96 24.0312C83.0908 24.0655 83.2057 24.1126 83.3046 24.1716C83.4035 24.2315 83.4809 24.3009 83.5368 24.3814C83.5926 24.4612 83.6213 24.5473 83.6213 24.6391C83.6213 24.738 83.5878 24.8234 83.5216 24.8944C83.4554 24.9662 83.374 25.0013 83.2791 25.0013C83.2113 25.0013 83.1459 24.9789 83.0852 24.935C83.0781 24.9319 83.0597 24.9175 83.0286 24.8912C82.9983 24.8656 82.9584 24.8345 82.9113 24.797C82.7749 24.6877 82.6425 24.6335 82.5125 24.6335C82.4072 24.6335 82.3162 24.6638 82.2413 24.7252C82.1663 24.7867 82.1288 24.8601 82.1288 24.9454C82.1288 25.0308 82.1583 25.097 82.2181 25.1448C82.278 25.1927 82.3856 25.235 82.5428 25.2725C82.6928 25.31 82.822 25.3467 82.9313 25.3826C83.0406 25.4185 83.1371 25.4568 83.2225 25.4974C83.4027 25.5828 83.54 25.7001 83.6341 25.85C83.7282 26 83.7745 26.1739 83.7745 26.3709C83.7745 26.5377 83.7442 26.6892 83.6851 26.8257C83.6253 26.9621 83.5407 27.0793 83.4299 27.1782C83.319 27.2772 83.1882 27.3537 83.0366 27.408C82.885 27.4622 82.7175 27.4902 82.5332 27.4902C82.3665 27.4902 82.207 27.4678 82.0554 27.4239C81.9038 27.3801 81.7706 27.3194 81.6565 27.2421C81.5424 27.1655 81.4515 27.0769 81.3829 26.9764C81.3151 26.8759 81.2808 26.7714 81.2808 26.6621C81.2808 26.6111 81.2904 26.5632 81.3087 26.5193C81.3271 26.4754 81.3526 26.4356 81.3853 26.4021C81.418 26.3678 81.4555 26.3406 81.4978 26.3199C81.5401 26.2992 81.5855 26.2896 81.6334 26.2896C81.7052 26.2896 81.7714 26.3039 81.8328 26.3327C81.8942 26.3614 81.9676 26.414 82.0522 26.4882C82.1511 26.58 82.2429 26.647 82.3282 26.6876C82.4136 26.7283 82.5005 26.7491 82.5891 26.7491C82.7047 26.7491 82.8013 26.714 82.8778 26.6446C82.9544 26.5752 82.9927 26.4874 82.9927 26.3813C82.9927 26.2928 82.9608 26.2186 82.8986 26.1588C82.8356 26.0989 82.7342 26.0487 82.5946 26.008L82.2572 25.9107C81.998 25.8357 81.8041 25.7519 81.6749 25.6602C81.5728 25.5924 81.4946 25.499 81.4395 25.3818C81.3853 25.2645 81.3582 25.1305 81.3582 24.9805C81.3582 24.8305 81.3869 24.6997 81.4451 24.5769C81.5034 24.454 81.5839 24.3487 81.6876 24.2602C81.7913 24.1716 81.9166 24.103 82.0634 24.0536C82.2093 24.0041 82.3697 23.9794 82.5436 23.9794V23.9802Z" fill="#31006F"/>
<path d="M85.7425 26.9497V27.0366C85.7393 27.1699 85.7026 27.276 85.6324 27.3557C85.5622 27.4355 85.4681 27.4762 85.3484 27.4762C85.2288 27.4762 85.1386 27.4355 85.0676 27.3533C84.9958 27.272 84.9599 27.1659 84.9599 27.0366V24.748H84.3265C84.2037 24.7448 84.1072 24.7113 84.0354 24.6483C83.9636 24.5852 83.9285 24.4991 83.9285 24.3906C83.9285 24.2821 83.9652 24.1991 84.0386 24.1329C84.1119 24.0667 84.2077 24.0332 84.3273 24.0332H86.3767C86.4955 24.0364 86.5921 24.0699 86.6655 24.1329C86.7389 24.1959 86.7756 24.2821 86.7756 24.3906C86.7756 24.4991 86.7389 24.5868 86.6655 24.6514C86.5921 24.7161 86.4963 24.7488 86.3767 24.7488H85.7433V26.9513L85.7425 26.9497Z" fill="#31006F"/>
<path d="M87.6887 26.8569L87.5818 27.1074L87.5507 27.1839C87.4654 27.3674 87.3377 27.4599 87.1678 27.4599C87.0625 27.4599 86.97 27.4233 86.8918 27.3499C86.8136 27.2765 86.7745 27.1887 86.7745 27.0866C86.7745 27.022 86.7929 26.9486 86.8304 26.8672L86.8663 26.7907L87.9958 24.2611C88.0676 24.1007 88.1921 24.021 88.3692 24.021C88.4506 24.021 88.5247 24.0417 88.5918 24.0824C88.658 24.1231 88.7082 24.1829 88.7425 24.2611L89.9024 26.7803C89.9399 26.8617 89.9638 26.9215 89.9742 26.959C89.9846 26.9965 89.9894 27.0387 89.9894 27.0866C89.9894 27.1887 89.9503 27.2773 89.8721 27.3523C89.7939 27.4272 89.7014 27.4647 89.5961 27.4647C89.4222 27.4647 89.2945 27.3746 89.2132 27.1935L89.1773 27.1121L89.06 26.8569H87.6903H87.6887ZM88.374 25.1968L87.9703 26.178H88.788L88.374 25.1968ZM88.5168 23.7146C88.496 23.7386 88.4673 23.7585 88.4298 23.7737C88.3923 23.7888 88.3548 23.7968 88.3173 23.7968C88.2392 23.7968 88.1706 23.7681 88.1131 23.7098C88.0549 23.6516 88.0262 23.5838 88.0262 23.5056C88.0262 23.4274 88.0565 23.3572 88.1179 23.2958L88.3684 23.035C88.4059 22.9975 88.4402 22.9712 88.4705 22.956C88.5016 22.9408 88.5383 22.9329 88.583 22.9329C88.6651 22.9329 88.7345 22.9616 88.7928 23.0198C88.851 23.078 88.8797 23.1474 88.8797 23.2296C88.8797 23.3014 88.8526 23.3644 88.7984 23.4187L88.5176 23.7154L88.5168 23.7146Z" fill="#31006F"/>
<path d="M91.3983 23.9802C91.5443 23.9802 91.6839 23.9969 91.8147 24.0312C91.9456 24.0655 92.0604 24.1126 92.1594 24.1716C92.2583 24.2315 92.3356 24.3009 92.3915 24.3814C92.4473 24.4612 92.476 24.5473 92.476 24.6391C92.476 24.738 92.4425 24.8234 92.3763 24.8944C92.3101 24.9662 92.2288 25.0013 92.1338 25.0013C92.066 25.0013 92.0006 24.9789 91.94 24.935C91.9328 24.9319 91.9144 24.9175 91.8833 24.8912C91.853 24.8656 91.8131 24.8345 91.7661 24.797C91.6297 24.6877 91.4972 24.6335 91.3672 24.6335C91.2619 24.6335 91.171 24.6638 91.096 24.7252C91.021 24.7867 90.9835 24.8601 90.9835 24.9454C90.9835 25.0308 91.013 25.097 91.0729 25.1448C91.1327 25.1927 91.2404 25.235 91.3975 25.2725C91.5475 25.31 91.6767 25.3467 91.786 25.3826C91.8953 25.4185 91.9918 25.4568 92.0772 25.4974C92.2575 25.5828 92.3947 25.7001 92.4888 25.85C92.5829 26 92.6292 26.1739 92.6292 26.3709C92.6292 26.5377 92.5989 26.6892 92.5399 26.8257C92.48 26.9621 92.3955 27.0793 92.2846 27.1782C92.1737 27.2772 92.0429 27.3537 91.8913 27.408C91.7398 27.4622 91.5722 27.4902 91.388 27.4902C91.2212 27.4902 91.0617 27.4678 90.9101 27.4239C90.7585 27.3801 90.6253 27.3194 90.5113 27.2421C90.3972 27.1655 90.3062 27.0769 90.2376 26.9764C90.1698 26.8759 90.1355 26.7714 90.1355 26.6621C90.1355 26.6111 90.1451 26.5632 90.1634 26.5193C90.1818 26.4754 90.2073 26.4356 90.24 26.4021C90.2727 26.3678 90.3102 26.3406 90.3525 26.3199C90.3948 26.2992 90.4403 26.2896 90.4881 26.2896C90.5599 26.2896 90.6261 26.3039 90.6875 26.3327C90.749 26.3614 90.8224 26.414 90.9069 26.4882C91.0058 26.58 91.0976 26.647 91.1829 26.6876C91.2683 26.7283 91.3553 26.7491 91.4438 26.7491C91.5595 26.7491 91.656 26.714 91.7326 26.6446C91.8092 26.5752 91.8474 26.4874 91.8474 26.3813C91.8474 26.2928 91.8155 26.2186 91.7533 26.1588C91.6903 26.0989 91.589 26.0487 91.4494 26.008L91.1119 25.9107C90.8527 25.8357 90.6588 25.7519 90.5296 25.6602C90.4275 25.5924 90.3493 25.499 90.2943 25.3818C90.24 25.2645 90.2129 25.1305 90.2129 24.9805C90.2129 24.8305 90.2416 24.6997 90.2999 24.5769C90.3581 24.454 90.4387 24.3487 90.5424 24.2602C90.6461 24.1716 90.7713 24.103 90.9181 24.0536C91.0641 24.0041 91.2244 23.9794 91.3983 23.9794V23.9802Z" fill="#31006F"/>
<path d="M70.6106 17.9163H61.6043V5.13598C61.6043 3.85723 60.568 2.82019 59.2885 2.82019C58.0089 2.82019 56.9727 3.85723 56.9727 5.13598V20.2313C56.9727 21.5101 58.0089 22.5463 59.2885 22.5463H70.6106C71.8893 22.5463 72.9256 21.5101 72.9256 20.2313C72.9256 18.9526 71.8893 17.9155 70.6106 17.9155V17.9163Z" fill="#31006F"/>
<path d="M44.8664 2.82075C42.9438 2.82075 41.153 3.38235 39.6333 4.33803V2.315C39.6333 1.03624 38.597 0 37.3183 0C36.0395 0 35.0025 1.03624 35.0025 2.315V20.2311C35.0025 21.5098 36.0387 22.5461 37.3183 22.5461C38.5978 22.5461 39.6333 21.5098 39.6333 20.2311V12.683C39.6333 9.79765 41.9818 7.45075 44.8664 7.45075C47.7509 7.45075 50.0978 9.79765 50.0978 12.683V20.2311C50.0978 21.5098 51.1341 22.5461 52.4136 22.5461C53.6932 22.5461 54.7294 21.5098 54.7294 20.2311V12.683C54.7294 7.24414 50.306 2.81996 44.8672 2.81996L44.8664 2.82075Z" fill="#31006F"/>
<path d="M83.1385 2.82092C77.6996 2.82092 73.2747 7.2451 73.2747 12.684C73.2747 18.1229 77.6996 22.5471 83.1385 22.5471C85.1137 22.5471 86.9516 21.9575 88.496 20.9532C88.8008 21.8762 89.6599 22.5471 90.6842 22.5471C91.963 22.5471 93 21.5108 93 20.2313V12.684C93 7.2451 88.5766 2.82092 83.1385 2.82092ZM83.1385 17.9163C80.2531 17.9163 77.9054 15.5694 77.9054 12.684C77.9054 9.79862 80.2531 7.45171 83.1385 7.45171C86.0239 7.45171 88.37 9.79862 88.37 12.684C88.37 15.5694 86.0231 17.9163 83.1385 17.9163Z" fill="#31006F"/>
<path d="M9.86386 2.82019C4.4162 2.82019 0 7.23639 0 12.6841C0 18.1317 4.4162 22.5479 9.86386 22.5479C15.3115 22.5479 19.7277 18.1317 19.7277 12.6841C19.7277 7.23639 15.3115 2.82019 9.86386 2.82019ZM9.86386 17.9163C6.97371 17.9163 4.63159 15.5734 4.63159 12.6841C4.63159 9.79469 6.9745 7.45178 9.86386 7.45178C12.7532 7.45178 15.0961 9.79469 15.0961 12.6841C15.0961 15.5734 12.7532 17.9163 9.86386 17.9163Z" fill="#31006F"/>
<path d="M27.4218 2.82019C21.9742 2.82019 17.558 7.23639 17.558 12.6841C17.558 15.4402 18.6884 17.9323 20.5112 19.7224C20.5151 19.7264 20.5191 19.7303 20.5239 19.7343L27.425 26.6283L34.3198 19.7343C36.1497 17.9434 37.2857 15.4466 37.2857 12.6841C37.2857 7.23639 32.8695 2.82019 27.4218 2.82019ZM27.4218 17.9163C24.5317 17.9163 22.1896 15.5734 22.1896 12.6841C22.1896 9.79469 24.5325 7.45178 27.4218 7.45178C30.3112 7.45178 32.6541 9.79469 32.6541 12.6841C32.6541 15.5734 30.3112 17.9163 27.4218 17.9163Z" fill="#FF8300"/>
</svg>
