<svg width="88" height="36" viewBox="0 0 88 36" fill="none" xmlns="http://www.w3.org/2000/svg">
<path d="M32.4228 2.76874C31.8357 2.76874 31.3499 2.96756 30.9648 3.36364C30.5796 3.7605 30.3878 4.25171 30.3878 4.83726V8.79576H29.2245V1.83466H30.3878V2.55744C30.7683 2.26817 31.1004 2.06857 31.3827 1.95708C31.7257 1.80893 32.1062 1.73486 32.5257 1.73486C33.4933 1.73486 34.287 2.106 34.9038 2.8467L33.8972 3.38079C33.5089 2.97301 33.0169 2.76952 32.4228 2.76952" fill="#34037B"/>
<path d="M39.6373 8.79581V2.83584H38.0522C37.3224 2.83584 36.7025 3.07365 36.1934 3.5477C35.6842 4.02175 35.4293 4.6112 35.4293 5.31526C35.4293 6.01933 35.6803 6.60721 36.1825 7.07815C36.6838 7.54908 37.2959 7.78377 38.0186 7.78377C38.4521 7.78377 38.8513 7.68397 39.2162 7.48359V8.60713C38.7375 8.76306 38.3188 8.84025 37.9617 8.84025C36.9356 8.84025 36.0585 8.50109 35.3334 7.82276C34.6067 7.14442 34.2441 6.30859 34.2441 5.31526C34.2441 4.75233 34.3775 4.21434 34.6433 3.70286C34.9622 3.11029 35.4113 2.65028 35.9891 2.32436C36.5668 1.99845 37.2054 1.83472 37.9048 1.83472H40.7444V8.79581H39.6381H39.6373Z" fill="#34037B"/>
<path d="M41.9748 3.70276C42.2936 3.10941 42.7427 2.65017 43.3205 2.32348C43.8983 1.99757 44.5368 1.83462 45.2362 1.83462H46.9695V0H48.0758V8.79571H45.2931C44.2592 8.79571 43.3805 8.46356 42.6585 7.80004C41.9358 7.13653 41.5748 6.30849 41.5748 5.31516C41.5748 4.75145 41.7081 4.21424 41.974 3.70276M46.9702 2.83574H45.3851C44.6553 2.83574 44.0355 3.07277 43.5263 3.5476C43.0164 4.02165 42.7622 4.6111 42.7622 5.31516C42.7622 6.01923 43.011 6.57905 43.5092 7.01645C44.0066 7.45386 44.621 7.67217 45.3516 7.67217H46.971V2.83496L46.9702 2.83574Z" fill="#34037B"/>
<path d="M50.0384 8.79575H48.8751V1.73486H50.0384V8.79575ZM48.9094 0.578574C48.9094 0.430433 48.9639 0.302563 49.0747 0.194966C49.1846 0.0873681 49.3156 0.0335693 49.4676 0.0335693C49.6275 0.0335693 49.7624 0.0873681 49.8723 0.194966C49.9822 0.302563 50.0376 0.430433 50.0376 0.578574C50.0376 0.734513 49.9822 0.865501 49.8723 0.973099C49.7616 1.0807 49.6267 1.1345 49.4676 1.1345C49.3086 1.1345 49.1846 1.0807 49.0747 0.973099C48.9639 0.865501 48.9094 0.733733 48.9094 0.578574Z" fill="#34037B"/>
<path d="M54.6915 8.89561C53.6421 8.89561 52.7376 8.55098 51.9774 7.86174C51.2164 7.17249 50.8367 6.3273 50.8367 5.32617C50.8367 4.32505 51.2164 3.47674 51.9774 2.7797C52.7376 2.08265 53.6421 1.73413 54.6915 1.73413C55.741 1.73413 56.661 2.08265 57.4283 2.7797C58.1962 3.47674 58.5806 4.32505 58.5806 5.32617C58.5806 6.3273 58.197 7.17171 57.4283 7.86174C56.6603 8.55098 55.748 8.89561 54.6915 8.89561ZM54.6915 2.76878C53.9383 2.76878 53.2928 3.0175 52.7532 3.51417C52.2129 4.01083 51.9431 4.6151 51.9431 5.32617C51.9501 6.03725 52.2238 6.6345 52.7641 7.11635C53.3037 7.5982 53.9461 7.83912 54.6915 7.83912C55.4369 7.83912 56.0926 7.5982 56.6361 7.11635C57.1795 6.6345 57.4555 6.03725 57.4626 5.32617C57.4704 4.61432 57.1982 4.01005 56.647 3.51417C56.0958 3.0175 55.4439 2.76878 54.6908 2.76878" fill="#34037B"/>
<path d="M79.754 29.6276L79.5754 29.5816L77.234 28.8993L74.9246 28.2257L74.8489 28.2038L74.7686 28.1805L74.5971 28.1306L74.3359 28.0541C74.3211 28.0362 74.3016 28.0105 74.2774 27.9785V30.2599C74.4373 29.6767 74.5823 29.0872 74.7078 28.4908L74.7881 28.5142L74.863 28.536L77.1678 29.2081L79.4881 29.8849L80.6389 30.1796C80.4581 30.093 80.2803 29.9932 80.1072 29.881C79.9879 29.803 79.8702 29.718 79.7532 29.6283" fill="#34037B"/>
<path d="M8.31548 29.6276L8.49403 29.5816L10.8354 28.8993L13.1449 28.2257L13.2205 28.2038L13.3008 28.1805L13.4724 28.1306L13.7336 28.0541C13.7476 28.0362 13.7679 28.0105 13.792 27.9785V29.5621L13.7476 29.7905C13.5878 29.2073 13.4864 29.0872 13.3616 28.4908L13.2813 28.5142L13.2057 28.536L10.9009 29.2081L8.58057 29.8849L7.42975 30.1796C7.61064 30.093 7.78841 29.9932 7.9615 29.881C8.08079 29.803 8.19853 29.718 8.3147 29.6283" fill="#34037B"/>
<path d="M74.9082 17.1128L74.987 17.0856L75.0626 17.0598L77.358 16.2786L79.6527 15.4981C79.7844 15.3889 79.9185 15.2868 80.0558 15.194C80.3497 14.9952 80.6553 14.8377 80.9703 14.7161L77.2964 15.9667L75.008 16.7464L74.9332 16.7713L74.8544 16.7986L74.6829 16.8571L74.1207 17.0489L74.0506 17.0731C74.0506 17.0731 74.0467 17.0739 74.0451 17.0746C74.0287 17.0793 74.0014 17.0871 73.9656 17.1011C73.8182 17.1588 73.5243 17.3171 73.2155 17.7163C73.2467 17.7647 73.2771 17.813 73.306 17.8613C73.3371 17.9136 73.366 17.9658 73.3956 18.0188C73.6467 17.6571 73.8868 17.4933 74.0209 17.4239C74.0537 17.4076 74.0794 17.3959 74.0989 17.3889C74.1184 17.3811 74.1309 17.3779 74.1317 17.3772L74.1745 17.3623" fill="#34037B"/>
<path d="M29.1534 15.8652H27.2175V30.0962H29.1534V15.8652Z" fill="#34037B"/>
<path d="M34.3751 29.1434C35.547 29.9302 36.8615 30.3286 38.2837 30.3286H41.9163L41.9186 30.405C41.9342 30.957 41.7401 31.5605 41.3416 32.1983C40.7171 33.1893 39.6014 33.6914 38.0248 33.6914H37.1531C36.8225 33.6758 36.5582 33.6664 36.3633 33.6649V35.9307C38.4264 35.9291 39.9546 35.8472 40.9066 35.689C41.85 35.533 42.6227 34.9475 43.2035 33.9502C43.7587 33.0138 44.0401 31.9488 44.0401 30.7847L44.0347 13.6471L41.8367 13.6252C41.2613 13.6128 38.7523 13.5878 38.2377 13.6237C35.8713 13.7913 34.361 14.4587 33.0262 15.9284C31.5541 17.5486 30.808 19.5743 30.808 21.9492C30.808 23.3152 31.0832 24.6189 31.6259 25.8235C32.2746 27.2394 33.1993 28.356 34.3743 29.1427M34.669 17.6289C35.8035 16.3799 36.9426 15.8388 38.477 15.8201C41.2044 15.76 41.6613 16.0392 41.8812 16.1733L41.9194 16.1967V28.0347H38.5901C37.0666 28.0347 35.7551 27.4507 34.6932 26.2983C33.6336 25.1491 33.0964 23.6856 33.0964 21.95C33.0964 20.2144 33.6258 18.779 34.6698 17.6289" fill="#34037B"/>
<path d="M27.8225 12.4026L27.3298 14.4165H28.6747L29.3289 12.4026H27.8225Z" fill="#34037B"/>
<path d="M27.8225 12.4026L27.3298 14.4165H28.6747L29.3289 12.4026H27.8225Z" fill="#34037B"/>
<path d="M47.5869 28.1633C49.1486 29.764 51.0542 30.5749 53.2514 30.5749C54.8217 30.5749 56.2727 30.2326 57.5623 29.5574C58.958 28.8557 59.991 27.8382 60.6343 26.5322L59.1599 24.9572C58.7662 25.9856 57.9077 26.8175 56.6072 27.4327C55.454 27.9621 54.2205 28.2303 52.9411 28.2303C51.4261 28.2303 50.1155 27.6362 49.045 26.4651C47.9768 25.2971 47.4279 23.8617 47.4123 22.1994C47.3959 20.5005 47.9705 19.0378 49.119 17.8519C50.2691 16.6644 51.6593 16.0625 53.2522 16.0625C56.4372 16.0625 58.2812 17.6897 58.7326 20.8981L58.7381 20.9348L58.6648 21.0135H49.8683V22.9635H61.1793C61.1926 22.6025 61.1996 22.2571 61.1996 21.9359C61.1996 19.058 60.3973 16.9069 58.8145 15.5424C57.4812 14.3846 55.61 13.7889 53.2522 13.7717C51.0714 13.7717 49.1697 14.5959 47.601 16.2223C46.0299 17.8503 45.233 19.8619 45.233 22.2002C45.233 24.5385 46.0252 26.5618 47.5885 28.1633" fill="#34037B"/>
<path d="M74.116 30.2342V30.1835C74.1113 30.2006 74.1067 30.217 74.102 30.2342H74.116Z" fill="#34037B"/>
<path d="M73.2974 18.1692C73.2677 18.1146 73.2365 18.0608 73.2054 18.007C73.1757 17.9556 73.1453 17.9049 73.1149 17.855C72.9114 17.5252 72.6791 17.2094 72.4155 16.9092C71.2897 15.6313 69.8995 14.9834 68.2847 14.9834C67.4925 14.9834 66.7628 15.144 66.1148 15.4606C65.5776 15.6999 64.9391 16.1366 64.2132 16.7595L64.0791 16.8742V15.2017H61.9949V30.2342H64.0791V21.6739C64.0791 20.382 64.4564 19.2842 65.201 18.4094C65.9495 17.5291 66.921 17.0831 68.089 17.0831C69.257 17.0831 70.2277 17.5338 70.977 18.4218C71.7216 19.3068 72.099 20.4007 72.099 21.6739V30.2342H74.102C74.1067 30.217 74.1114 30.2007 74.116 30.1835V21.5531C74.116 20.3056 73.8416 19.1735 73.2974 18.1692Z" fill="#34037B"/>
<path d="M6.04498 26.2865C7.44842 25.4913 8.20395 23.1553 7.73223 21.0704C7.2574 18.9847 5.737 17.936 4.33355 18.7329C2.93011 19.5289 2.17458 21.8649 2.64864 23.9521C3.12191 26.0386 4.64153 27.0834 6.04498 26.2865ZM5.18732 19.4159C6.26563 19.4159 7.14434 20.8076 7.14434 22.5082C7.14434 24.2087 6.26485 25.6043 5.18732 25.6043C4.10978 25.6043 3.23341 24.2165 3.23341 22.5082C3.23341 20.7998 4.11212 19.4159 5.18732 19.4159Z" fill="#34037B"/>
<path d="M6.33345 27.563C8.21095 26.4971 9.22143 23.3737 8.5891 20.5816C7.95755 17.7911 5.92177 16.3915 4.04427 17.4558C2.16677 18.5217 1.15785 21.6459 1.7894 24.4372C2.42018 27.23 4.45595 28.628 6.33423 27.563M4.12458 17.8098C5.76428 16.8804 7.5716 18.2308 8.15949 20.8256C8.74816 23.4212 7.89518 26.2765 6.25314 27.2105C4.61423 28.1399 2.80612 26.7934 2.21823 24.1955C1.62957 21.5999 2.48255 18.7384 4.12458 17.809" fill="#34037B"/>
<path d="M6.18912 26.9244C7.82881 25.995 8.71299 23.2622 8.1594 20.8256C7.60582 18.3852 5.83046 17.1658 4.18843 18.0952C2.54796 19.0285 1.66379 21.7574 2.21815 24.1955C2.77173 26.6344 4.54865 27.8569 6.18912 26.9244ZM4.28043 18.4889C5.68388 17.6944 7.22689 18.8499 7.73213 21.0705C8.23269 23.2902 7.50368 25.7322 6.10024 26.5314C4.69445 27.3259 3.15066 26.172 2.64854 23.9522C2.14564 21.7293 2.87465 19.285 4.28043 18.4889Z" fill="#34037B"/>
<path d="M81.7967 18.6277C80.3512 19.4238 79.5731 21.7597 80.0619 23.847C80.55 25.9334 82.1149 26.9782 83.5596 26.1814C85.0044 25.3861 85.7825 23.0501 85.2968 20.9652C84.8079 18.8795 83.2423 17.8316 81.7967 18.6277ZM82.6762 25.4984C81.5683 25.4984 80.6639 24.1105 80.6639 22.4022C80.6639 20.6939 81.5683 19.3099 82.6762 19.3099C83.7842 19.3099 84.6917 20.7017 84.6917 22.4022C84.6917 24.1027 83.7865 25.4984 82.6762 25.4984Z" fill="#34037B"/>
<path d="M81.4989 17.3513C79.5653 18.4172 78.5267 21.5414 79.177 24.3335C79.8265 27.1255 81.9231 28.5235 83.8567 27.4585C85.7903 26.3926 86.8312 23.2692 86.1794 20.4771C85.5292 17.6866 83.4333 16.287 81.4989 17.3513ZM83.7741 27.1053C82.0852 28.0347 80.2241 26.6881 79.6183 24.091C79.0117 21.4954 79.8912 18.6339 81.5816 17.7045C83.2696 16.7751 85.1307 18.1256 85.7365 20.7212C86.3431 23.3168 85.4644 26.172 83.7741 27.1053Z" fill="#34037B"/>
<path d="M81.6478 17.9899C79.9582 18.9232 79.0483 21.6522 79.6183 24.0902C80.1882 26.5291 82.0182 27.7517 83.7078 26.8192C85.3966 25.8898 86.3065 23.157 85.7365 20.7204C85.1666 18.28 83.3382 17.0605 81.647 17.9899M83.6165 26.4262C82.1687 27.2199 80.5789 26.0668 80.0611 23.847C79.5426 21.6241 80.2943 19.1805 81.7422 18.3837C83.1869 17.5892 84.7767 18.7455 85.2968 20.9652C85.8122 23.185 85.0613 25.6278 83.6165 26.4262Z" fill="#34037B"/>
<path d="M86.3588 16.9919C85.282 15.5003 83.9908 14.744 82.5203 14.744C82.0673 14.744 81.6315 14.8173 81.2136 14.9623C81.0873 15.006 80.9633 15.059 80.8401 15.1159C80.7083 15.1775 80.5789 15.2446 80.451 15.321C79.8226 15.696 79.2425 16.2535 78.7147 16.9919C78.3116 17.5556 77.9833 18.17 77.7291 18.8312C77.3042 19.9391 77.0898 21.1804 77.0898 22.5417C77.0898 23.9031 77.2894 25.0453 77.6831 26.1143C77.9428 26.8207 78.2858 27.4733 78.7147 28.0666C79.2129 28.7567 79.7587 29.2853 80.3473 29.6549C80.5672 29.7929 80.7925 29.909 81.0241 30.0018C81.159 30.0564 81.2962 30.104 81.435 30.1429C81.7851 30.2412 82.1469 30.2903 82.5203 30.2903C83.9908 30.2903 85.282 29.5418 86.3588 28.0666C87.448 26.5735 88 24.7147 88 22.5425C88 20.3703 87.448 18.5029 86.358 16.9934M83.9339 27.7844C81.9987 28.851 79.8702 27.3041 79.1762 24.3327C78.4815 21.3644 79.4889 18.092 81.421 17.0254C83.3554 15.9611 85.4847 17.5057 86.1794 20.4771C86.8734 23.4477 85.8676 26.7209 83.9339 27.7844Z" fill="#34037B"/>
<path d="M25.6909 15.2361H22.7678L19.0682 20.4912L15.4005 15.2361H13.6704H13.5838H13.5043H12.8992H12.716H12.6287H12.5499H12.5094L12.539 15.279L12.5998 15.3647L12.6646 15.4575L12.8033 15.6548L13.2096 16.2333L13.261 16.3066L13.3234 16.3955L13.3452 16.4267L13.3897 16.4898L13.4817 16.6208L17.3521 22.1325L17.5345 22.3913L17.6382 22.5402L17.547 22.6705L17.3895 22.895L13.7366 28.0963L13.594 28.2991L13.4747 28.4682L13.452 28.5002L13.4099 28.561L13.3491 28.6468L12.8946 29.2939L12.7597 29.4865L12.6957 29.577L12.6373 29.6612L12.4922 29.867H12.6887H12.7683H12.8556H13.038H13.6454H13.7249H13.8123H15.4769L19.0838 24.6555L22.7226 29.867H25.6761L20.5769 22.5629L25.6909 15.2361Z" fill="#34037B"/>
<path d="M13.3242 28.5354C13.3242 28.5354 13.325 28.5397 13.3259 28.5423L13.3319 28.5337L13.3242 28.5354Z" fill="#34037B"/>
<path d="M13.2181 16.5248L13.1113 16.3728L12.9756 16.1794L12.7565 15.8668L12.6178 15.6695C12.5881 15.8044 12.5562 15.9393 12.5281 16.0742L12.447 16.0555L12.3706 16.0375L10.0378 15.4925L8.60313 15.1573L6.91119 14.8103C7.07493 14.8859 7.23555 14.9717 7.39382 15.0699C7.50688 15.1401 7.6176 15.2173 7.72753 15.2992L8.53217 15.4645L9.97539 15.8021L12.309 16.3471L12.3854 16.365L12.4665 16.3837L12.6412 16.425L13.2119 16.5584L13.2478 16.5662L13.2189 16.5256L13.2181 16.5248Z" fill="#34037B"/>
<path d="M9.5832 18.2145C9.43662 17.8995 9.2721 17.5962 9.08966 17.3054C9.02494 17.2025 8.95867 17.1019 8.89005 17.0021C8.29905 16.1476 7.64021 15.5355 6.92055 15.1667C6.69054 15.049 6.45429 14.9554 6.21181 14.8884C5.88824 14.7987 5.55453 14.7527 5.20991 14.7527C3.81192 14.7527 2.58468 15.509 1.5625 17.0013C0.525513 18.5147 0 20.386 0 22.5644C0 24.7429 0.525513 26.6056 1.56172 28.1018C2.58468 29.5785 3.81192 30.3278 5.20991 30.3278C5.65745 30.3278 6.08706 30.2514 6.49874 30.1009C6.66247 30.0409 6.82309 29.9692 6.98059 29.8857C7.19266 29.7735 7.40006 29.6394 7.602 29.485C8.06046 29.1326 8.49085 28.6718 8.89005 28.101C9.18088 27.6854 9.4296 27.241 9.6409 26.7709C10.189 25.546 10.4674 24.1378 10.4674 22.5644C10.4674 20.991 10.1703 19.4784 9.5832 18.2145ZM6.40907 27.8897C4.53001 28.9563 2.46305 27.4094 1.78861 24.438C1.11496 21.4697 2.09269 18.1974 3.96941 17.1307C5.84769 16.0665 7.91544 17.6118 8.58909 20.5824C9.26275 23.5531 8.28657 26.8262 6.40907 27.8897Z" fill="#34037B"/>
</svg>
