<svg width="59" height="59" viewBox="0 0 59 59" fill="none" xmlns="http://www.w3.org/2000/svg">
<path d="M59 29.5C59 45.7928 45.7918 59 29.5 59C13.2082 59 0 45.7928 0 29.5C0 13.2072 13.2082 0 29.5 0C45.7918 0 59 13.2082 59 29.5Z" fill="#FFE400"/>
<path d="M15.3247 34.5101C18.4658 33.8152 20.8145 31.0184 20.8145 27.6724C20.8173 23.8028 17.6789 20.6681 13.8111 20.6681C9.94328 20.6681 6.80768 23.8028 6.80768 27.6724V38.2404H9.60814V33.4318C12.4441 36.3935 16.4394 38.2404 20.8646 38.2404V35.7368C18.8829 35.7368 17.0068 35.2933 15.3247 34.5092M9.64092 27.7207C9.64092 25.3829 11.537 23.484 13.8785 23.484C16.22 23.484 18.1106 25.3829 18.1106 27.7207C18.1106 30.0585 16.219 31.9574 13.8785 31.9574C11.538 31.9574 9.64092 30.0603 9.64092 27.7207Z" fill="#020000"/>
<path fill-rule="evenodd" clip-rule="evenodd" d="M30.0273 20.7578C26.1576 20.7578 23.0211 23.8952 23.0211 27.7621V38.3319H25.8216V33.3667C26.9937 34.2446 28.4454 34.7665 30.0273 34.7665C33.8951 34.7665 37.0307 31.6336 37.0307 27.7621C37.0307 23.8907 33.8951 20.7578 30.0273 20.7578ZM30.0373 31.8622C27.7487 31.8622 25.8917 30.0098 25.8917 27.7212C25.8917 25.4325 27.7487 23.5801 30.0373 23.5801C32.3259 23.5801 34.1774 25.4316 34.1774 27.7212C34.1774 30.0107 32.3214 31.8622 30.0373 31.8622Z" fill="#020000"/>
<path fill-rule="evenodd" clip-rule="evenodd" d="M45.1862 20.7578C41.3183 20.7578 38.1837 23.8952 38.1837 27.7621V38.3319H40.9841V33.3667C42.1535 34.2446 43.6097 34.7665 45.1862 34.7665C49.0567 34.7665 52.1932 31.6336 52.1932 27.7621C52.1932 23.8907 49.0576 20.7578 45.1862 20.7578ZM45.1989 31.8622C42.9076 31.8622 41.0533 30.0071 41.0533 27.7212C41.0533 25.4353 42.9076 23.5801 45.1989 23.5801C47.4903 23.5801 49.3381 25.4316 49.3381 27.7212C49.3381 30.0107 47.4848 31.8622 45.1989 31.8622Z" fill="#020000"/>
</svg>
