<svg width="91" height="28" viewBox="0 0 91 28" fill="none" xmlns="http://www.w3.org/2000/svg">
<path d="M2.22306 15.4977C2.31673 15.1843 2.5358 15.0906 2.78657 15.247C4.22706 16.0605 5.94857 16.6557 7.13829 16.7494C8.13992 16.7494 8.79784 16.2796 8.79784 15.5597C8.7971 13.7135 0 13.8072 0 6.98314C0 2.78779 3.162 0.00195312 7.92012 0.00195312C10.1424 0.00195312 12.96 0.909912 14.9323 2.25599C15.1831 2.41236 15.2767 2.66314 15.1831 2.8195L13.2108 7.23317C13.1171 7.54665 12.8973 7.64032 12.6473 7.48395C11.1131 6.60697 9.32889 5.94979 8.23359 5.85612C7.26294 5.85612 6.63673 6.29424 6.63673 6.98314C6.63673 8.83003 15.4958 8.70464 15.4958 15.5922C15.4958 19.7558 12.2711 22.5416 7.45028 22.5416C4.82081 22.5416 2.06596 21.7281 0.500816 20.4757C0.250039 20.2876 0.156367 20.0685 0.250039 19.9122L2.22232 15.4985L2.22306 15.4977Z" fill="black"/>
<path d="M34.0271 0.471197C34.3089 0.471197 34.497 0.690257 34.4652 0.909318L33.9954 5.66744C33.9644 5.91822 33.7137 6.10556 33.4946 6.10556H28.8301V21.6331C28.8301 21.8521 28.6421 22.0712 28.392 22.0712H22.8513C22.6013 22.0712 22.3815 21.8521 22.3815 21.6331V6.10556H17.1853C16.9662 6.10556 16.7471 5.91748 16.7471 5.66744V0.940297C16.7471 0.68952 16.9662 0.470459 17.1853 0.470459H34.0271V0.471197Z" fill="black"/>
<path d="M73.5646 21.5711C73.721 21.8529 73.5019 22.0719 73.2202 22.0719H66.5207C66.2073 22.0719 65.9262 21.8529 65.8009 21.5711L62.5452 14.7463H62.1698V21.6338C62.1698 21.8529 61.9507 22.0719 61.6689 22.0719H56.1592C55.9085 22.0719 55.6894 21.8529 55.6894 21.6338V0.940297C55.6894 0.68952 55.9085 0.470459 56.1592 0.470459H64.4238C69.2446 0.470459 72.4383 3.28801 72.4383 7.54531C72.4383 10.0184 70.9359 12.5225 68.5874 13.5249L73.5653 21.5704L73.5646 21.5711ZM64.0159 9.42393C65.0802 9.42393 65.8001 8.76674 65.8001 7.76437C65.8001 6.76201 65.0802 6.10482 64.0159 6.10482H62.169V9.42319H64.0159V9.42393Z" fill="black"/>
<path d="M77.7265 15.4973C77.8202 15.1838 78.0393 15.0901 78.29 15.2465C79.7305 16.06 81.452 16.6553 82.6418 16.7489C83.6434 16.7489 84.3013 16.2791 84.3013 15.5592C84.3013 13.7123 75.5042 13.806 75.5042 6.98118C75.5042 2.78657 78.6662 0 83.4243 0C85.6467 0 88.4642 0.90796 90.4365 2.25404C90.6873 2.41041 90.7809 2.66118 90.6873 2.81755L88.715 7.23122C88.6213 7.54469 88.4015 7.63836 88.1515 7.482C86.6173 6.60502 84.8331 5.94783 83.7378 5.85416C82.7672 5.85416 82.1409 6.29228 82.1409 6.98118C82.1409 8.82808 91 8.70269 91 15.5902C91 19.7538 87.7753 22.5397 82.9545 22.5397C80.325 22.5397 77.5702 21.7261 76.005 20.4737C75.7542 20.2856 75.6606 20.0666 75.7542 19.9102L77.7265 15.4965V15.4973Z" fill="black"/>
<path d="M58.1855 24.6484C57.9776 24.4492 57.667 24.3379 57.3971 24.3379C56.7325 24.3379 56.3298 24.8431 56.3298 25.4811C56.3298 25.9908 56.6263 26.5174 57.3971 26.5174C57.6405 26.5174 57.8536 26.4643 58.097 26.2696V25.7201H57.3041V25.1971H58.6333V26.5041C58.3272 26.8545 57.9421 27.0625 57.3971 27.0625C56.2317 27.0625 55.7582 26.2961 55.7582 25.4811C55.7582 24.6085 56.3032 23.8016 57.3971 23.8016C57.8138 23.8016 58.2298 23.961 58.5492 24.2759L58.1855 24.6476V24.6484Z" fill="black"/>
<path d="M63.0584 26.9925H62.3629L61.4594 25.9555H60.8966V26.9925H60.3117V23.8866C60.8037 23.8866 61.2949 23.891 61.7869 23.891C62.5178 23.8954 62.9036 24.383 62.9036 24.9192C62.9036 25.3448 62.7081 25.7741 62.1195 25.8935L63.0592 26.9527V26.9925H63.0584ZM60.8966 24.4361V25.4281H61.7869C62.1586 25.4281 62.3187 25.1803 62.3187 24.9317C62.3187 24.6832 62.1549 24.4354 61.7869 24.4354H60.8966V24.4361Z" fill="black"/>
<path d="M67.3511 23.8953V25.6714C67.3511 26.5882 66.7883 27.058 66.0087 27.058C65.2291 27.058 64.6309 26.6059 64.6309 25.6714V23.8953H65.2114V25.6714C65.2114 26.2297 65.53 26.5262 66.0131 26.5262C66.4963 26.5262 66.7706 26.2031 66.7706 25.6714V23.8953H67.3511Z" fill="black"/>
<path d="M70.625 26.0793H69.748V26.9917H69.1631V23.8902C69.6507 23.8902 70.1375 23.8857 70.625 23.8857C72.14 23.8857 72.1444 26.0786 70.625 26.0786V26.0793ZM69.748 25.5438H70.625C71.3737 25.5438 71.3692 24.4448 70.625 24.4448H69.748V25.5438Z" fill="black"/>
<path d="M76.4464 25.4592C76.4375 26.2609 75.9456 27.0626 74.8561 27.0626C73.7667 27.0626 73.2615 26.2786 73.2615 25.4636C73.2615 24.6486 73.7844 23.8291 74.8561 23.8291C75.9279 23.8291 76.4552 24.6486 76.4464 25.4592ZM73.8368 25.4724C73.8501 25.9821 74.1252 26.5272 74.8561 26.5272C75.5871 26.5272 75.8615 25.9777 75.8703 25.468C75.8792 24.9451 75.5871 24.3602 74.8561 24.3602C74.1252 24.3602 73.8235 24.9495 73.8368 25.4724Z" fill="black"/>
<path d="M81.1824 26.9924H80.1852L79.441 25.9554H79.1268V26.9924H78.2233V23.798H79.7825C79.9861 23.798 80.1668 23.8282 80.3232 23.8887C80.4795 23.9492 80.6093 24.0303 80.7133 24.1321C80.8166 24.2339 80.8948 24.3512 80.9479 24.4847C81.001 24.6174 81.0275 24.7546 81.0275 24.897C81.0275 24.9943 81.0172 25.0887 80.9966 25.1802C80.9759 25.2717 80.9405 25.358 80.8903 25.4398C80.8402 25.521 80.7716 25.5969 80.6846 25.6677C80.5975 25.7385 80.4862 25.8034 80.3504 25.8625L81.1832 26.9393V26.9924H81.1824ZM79.1268 24.5201V25.2864H79.7914C79.9123 25.2864 80.0001 25.2495 80.0547 25.1758C80.1093 25.102 80.1365 25.015 80.1365 24.9147C80.1365 24.8645 80.1292 24.8158 80.1144 24.7686C80.0997 24.7214 80.0775 24.6794 80.048 24.6425C80.0185 24.6056 79.9817 24.5761 79.9374 24.554C79.8931 24.5319 79.8415 24.5208 79.7825 24.5208H79.1268V24.5201Z" fill="black"/>
<path d="M83.7296 26.1281V26.9918H82.8261V23.7974H84.3765C84.5918 23.7974 84.7799 23.8291 84.9415 23.8925C85.1023 23.9559 85.2357 24.0408 85.3427 24.147C85.4489 24.2532 85.5286 24.3764 85.5817 24.5172C85.6348 24.6574 85.6613 24.8056 85.6613 24.9627C85.6613 25.1198 85.6348 25.2762 85.5817 25.4171C85.5286 25.5572 85.4482 25.6797 85.3405 25.7851C85.2328 25.8899 85.0978 25.9725 84.937 26.033C84.7762 26.0934 84.5889 26.1252 84.3765 26.1281H83.7296ZM83.7296 25.3662H84.3765C84.5063 25.3662 84.6022 25.3278 84.6641 25.2511C84.7261 25.1744 84.7571 25.083 84.7571 24.9768C84.7571 24.8705 84.7253 24.7732 84.6619 24.6935C84.5985 24.6139 84.5033 24.574 84.3765 24.574H83.7296V25.3669V25.3662Z" fill="black"/>
<path d="M88.2039 26.1281V26.9918H87.3004V23.7974H88.8508C89.0661 23.7974 89.2542 23.8291 89.4158 23.8925C89.5766 23.9559 89.7108 24.0408 89.817 24.147C89.9232 24.2532 90.0029 24.3764 90.056 24.5172C90.1091 24.6574 90.1356 24.8056 90.1356 24.9627C90.1356 25.1198 90.1091 25.2762 90.056 25.4171C90.0029 25.5572 89.9225 25.6797 89.8148 25.7851C89.7071 25.8899 89.5729 25.9725 89.4113 26.033C89.2505 26.0934 89.0639 26.1252 88.8508 26.1281H88.2039ZM88.2039 25.3662H88.8508C88.9806 25.3662 89.0765 25.3278 89.1392 25.2511C89.2011 25.1744 89.2321 25.083 89.2321 24.9768C89.2321 24.8705 89.2004 24.7732 89.137 24.6935C89.0735 24.6139 88.9784 24.574 88.8508 24.574H88.2039V25.3669V25.3662Z" fill="black"/>
<path d="M38.75 15.8858C38.9743 16.0503 39.0635 16.3445 38.9639 16.6034C37.699 19.8916 34.5326 22.0866 30.9774 22.0866H30.9398L34.1018 12.4767L38.75 15.8858Z" fill="black"/>
<path d="M40.4729 12.0469L44.1792 0.469116H38.3487C38.1384 0.469116 37.9526 0.604093 37.8884 0.803977L34.1024 12.4776H39.8843C40.1535 12.4776 40.3918 12.3036 40.4736 12.0476L40.4729 12.0469Z" fill="black"/>
<path d="M45.7814 15.8858C45.5572 16.0503 45.468 16.3445 45.5675 16.6034C46.8325 19.8916 49.9989 22.0866 53.554 22.0866H53.5916L50.4296 12.4767L45.7814 15.8858Z" fill="#EB6E1D"/>
<path d="M44.0584 12.0469L40.3528 0.469116H46.1833C46.3936 0.469116 46.5794 0.604093 46.6436 0.803977L50.4296 12.4776H44.6477C44.3785 12.4776 44.1403 12.3036 44.0584 12.0476V12.0469Z" fill="#EB6E1D"/>
</svg>
