<svg width="88" height="37" viewBox="0 0 88 37" fill="none" xmlns="http://www.w3.org/2000/svg">
<path d="M20.451 0L13.5673 16.589H19.4252L0 37L8.70728 20.1756H2.75775L20.451 0Z" fill="#0C1425"/>
<path d="M20.5435 24.154L21.9501 16.5224H19.6084L20.2369 13.2007H28.8486L28.2348 16.5224H25.9674L24.5534 24.154H20.5426H20.5435Z" fill="#0C1425"/>
<path d="M29.6123 13.1997H33.6304L32.6431 18.5117C32.5433 19.0503 32.4812 19.4108 32.4559 19.5931C32.4305 19.7753 32.4183 19.9159 32.4183 20.0156C32.4183 20.3001 32.4894 20.5191 32.6316 20.6744C32.7738 20.8289 32.9774 20.9065 33.2414 20.9065C33.5708 20.9065 33.82 20.7856 33.9892 20.5436C34.1584 20.3017 34.3333 19.692 34.5132 18.7144L35.5234 13.1997H39.526L38.4111 19.298C38.2566 20.0908 38.0883 20.7398 37.906 21.2433C37.7237 21.7468 37.5079 22.1661 37.2587 22.5004C36.7944 23.124 36.2075 23.6038 35.4964 23.9406C34.7853 24.2773 34.0039 24.4457 33.1506 24.4457C31.6688 24.4457 30.5098 24.0901 29.6712 23.3799C28.8334 22.6688 28.4141 21.6904 28.4141 20.4431C28.4141 20.1889 28.4386 19.871 28.4893 19.4893C28.5391 19.1075 28.6266 18.573 28.7508 17.884L29.6115 13.2005L29.6123 13.1997Z" fill="#0C1425"/>
<path d="M38.2275 24.1539L40.248 13.1997H43.2109C44.1288 13.1997 44.8955 13.2447 45.5118 13.3346C46.1281 13.4245 46.6332 13.5618 47.0272 13.7465C47.8903 14.1756 48.5499 14.7625 49.006 15.5087C49.4621 16.2542 49.6909 17.1189 49.6909 18.1014C49.6909 19.0242 49.4915 19.8881 49.0926 20.694C48.6938 21.4999 48.1322 22.1718 47.4089 22.7104C46.7305 23.2188 45.945 23.5875 45.0516 23.8139C44.1591 24.0411 43.0336 24.1539 41.6768 24.1539H38.2275ZM42.8072 20.8616H42.8521C43.7349 20.8616 44.4255 20.6368 44.9249 20.1881C45.4235 19.7394 45.6728 19.1255 45.6728 18.3474C45.6728 17.7736 45.4946 17.3208 45.1375 16.9898C44.7811 16.6579 44.2956 16.492 43.6826 16.492H43.6074L42.8064 20.8616H42.8072Z" fill="#0C1425"/>
<path d="M49.561 24.1539L51.5889 13.1997H55.6144L53.5939 24.1539H49.561Z" fill="#0C1425"/>
<path d="M60.5139 24.446C59.7259 24.446 59.0124 24.3389 58.374 24.124C57.7357 23.9098 57.1668 23.5878 56.6682 23.1587C56.1394 22.7001 55.7291 22.1337 55.4373 21.4602C55.1455 20.7867 55 20.0707 55 19.313C55 18.4899 55.1259 17.7241 55.3776 17.0163C55.6294 16.3084 56.0045 15.6644 56.5039 15.0857C57.0875 14.3975 57.7994 13.867 58.6397 13.4959C59.4799 13.124 60.3864 12.9385 61.359 12.9385C63.0052 12.9385 64.3383 13.4134 65.3583 14.3639C66.3784 15.3145 66.8884 16.5504 66.8884 18.0715C66.8884 18.8896 66.7609 19.6563 66.5067 20.3723C66.2525 21.0883 65.8782 21.7299 65.3845 22.2988C64.7862 23.0017 64.0726 23.5363 63.2447 23.9C62.4167 24.2637 61.5061 24.446 60.5139 24.446ZM61.113 16.5822C60.4894 16.5822 59.9703 16.8046 59.5568 17.2484C59.1424 17.6922 58.9356 18.2431 58.9356 18.9019C58.9356 19.4806 59.1015 19.9408 59.4333 20.2824C59.7652 20.6241 60.2074 20.7949 60.7615 20.7949C61.3754 20.7949 61.8911 20.5677 62.3104 20.114C62.7297 19.6604 62.939 19.1013 62.939 18.4376C62.939 17.8941 62.7673 17.4486 62.4224 17.1021C62.0783 16.7555 61.6418 16.5822 61.113 16.5822Z" fill="#0C1425"/>
<path d="M72.1029 20.5611C71.9697 20.5824 71.825 20.6004 71.6705 20.6135C71.516 20.6265 71.3395 20.6331 71.1425 20.6331C70.102 20.6331 69.2577 20.3274 68.6103 19.7168C67.9622 19.1063 67.6377 18.3151 67.6377 17.344C67.6377 16.0158 68.1461 14.923 69.1621 14.0673C70.178 13.2115 71.4891 12.7832 73.0952 12.7832C74.5247 12.7832 75.6821 13.187 76.5681 13.9953C77.4533 14.8037 77.8963 15.8532 77.8963 17.1438C77.8963 18.1679 77.6552 19.1349 77.1721 20.0446C76.6891 20.9543 75.9674 21.7954 75.007 22.5694L72.4544 24.6177H66.813L72.1021 20.5603L72.1029 20.5611ZM73.8308 17.192C73.8308 16.9149 73.7335 16.6812 73.539 16.4915C73.3445 16.3019 73.1033 16.2071 72.8148 16.2071C72.5263 16.2071 72.2852 16.3019 72.0906 16.4915C71.8961 16.6812 71.7989 16.9141 71.7989 17.192C71.7989 17.4699 71.8961 17.7029 72.0906 17.8925C72.2852 18.0821 72.5271 18.1769 72.8148 18.1769C73.1025 18.1769 73.3371 18.0805 73.5349 17.8892C73.7319 17.6971 73.8308 17.465 73.8308 17.1928V17.192Z" fill="#FF0044"/>
<path d="M76.694 24.6347L77.1239 22.3077C79.1265 21.0604 80.6467 19.9954 81.6856 19.1127C82.7245 18.2308 83.2435 17.5605 83.2435 17.1012C83.2435 16.8723 83.1773 16.6925 83.044 16.5617C82.9108 16.431 82.7277 16.3656 82.494 16.3656C82.2177 16.3656 81.9937 16.4612 81.8205 16.6533C81.648 16.8453 81.5458 17.1094 81.5131 17.4453H77.8882C78.1007 15.9152 78.6401 14.7603 79.5057 13.9789C80.3713 13.1983 81.5507 12.8076 83.0432 12.8076C84.3821 12.8076 85.4642 13.1395 86.2898 13.8032C87.1161 14.4668 87.5289 15.3267 87.5289 16.3819C87.5289 17.3415 87.1651 18.2398 86.4369 19.0767C85.7094 19.9137 84.615 20.6918 83.1544 21.4119H86.875L86.2775 24.6347H76.6924H76.694Z" fill="#FF0044"/>
</svg>
